<mxfile host="app.diagrams.net" agent="Mozilla/5.0 (Windows NT 10.0; Win64; x64) AppleWebKit/537.36 (KHTML, like Gecko) Chrome/133.0.0.0 Safari/537.36" version="26.0.10">
  <diagram id="C5RBs43oDa-KdzZeNtuy" name="Page-1">
    <mxGraphModel dx="5790" dy="2817" grid="1" gridSize="10" guides="1" tooltips="1" connect="1" arrows="1" fold="1" page="1" pageScale="1" pageWidth="827" pageHeight="1169" math="0" shadow="0">
      <root>
        <mxCell id="WIyWlLk6GJQsqaUBKTNV-0" />
        <mxCell id="WIyWlLk6GJQsqaUBKTNV-1" parent="WIyWlLk6GJQsqaUBKTNV-0" />
        <mxCell id="zkfFHV4jXpPFQw0GAbJ--0" value="GameObject.js" style="swimlane;fontStyle=2;align=center;verticalAlign=top;childLayout=stackLayout;horizontal=1;startSize=26;horizontalStack=0;resizeParent=1;resizeLast=0;collapsible=1;marginBottom=0;rounded=0;shadow=0;strokeWidth=1;" parent="WIyWlLk6GJQsqaUBKTNV-1" vertex="1">
          <mxGeometry x="-580" y="-640" width="200" height="990" as="geometry">
            <mxRectangle x="230" y="140" width="160" height="26" as="alternateBounds" />
          </mxGeometry>
        </mxCell>
        <mxCell id="zkfFHV4jXpPFQw0GAbJ--4" value="" style="line;html=1;strokeWidth=1;align=left;verticalAlign=middle;spacingTop=-1;spacingLeft=3;spacingRight=3;rotatable=0;labelPosition=right;points=[];portConstraint=eastwest;" parent="zkfFHV4jXpPFQw0GAbJ--0" vertex="1">
          <mxGeometry y="26" width="200" height="8" as="geometry" />
        </mxCell>
        <mxCell id="zkfFHV4jXpPFQw0GAbJ--17" value="Background.js" style="swimlane;fontStyle=0;align=center;verticalAlign=top;childLayout=stackLayout;horizontal=1;startSize=26;horizontalStack=0;resizeParent=1;resizeLast=0;collapsible=1;marginBottom=0;rounded=0;shadow=0;strokeWidth=1;" parent="WIyWlLk6GJQsqaUBKTNV-1" vertex="1">
          <mxGeometry x="-280" y="-640" width="192.55" height="380" as="geometry">
            <mxRectangle x="550" y="140" width="160" height="26" as="alternateBounds" />
          </mxGeometry>
        </mxCell>
        <UserObject label="&lt;ol style=&quot;padding-inline-start: 28px; color: rgb(204, 204, 204); font-family: &amp;quot;Segoe WPC&amp;quot;, &amp;quot;Segoe UI&amp;quot;, sans-serif; font-size: 13px; font-style: normal; font-variant-ligatures: normal; font-variant-caps: normal; font-weight: 400; letter-spacing: normal; orphans: 2; text-align: start; text-indent: 0px; text-transform: none; widows: 2; word-spacing: 0px; -webkit-text-stroke-width: 0px; white-space: normal; background-color: rgb(24, 24, 24); text-decoration-thickness: initial; text-decoration-style: initial; text-decoration-color: initial;&quot;&gt;&lt;li&gt;&lt;p style=&quot;margin: 0px;&quot;&gt;&lt;strong&gt;constructor(canvas, image, data)&lt;/strong&gt;&lt;/p&gt;&lt;ul style=&quot;padding-inline-start: 24px;&quot;&gt;&lt;li&gt;Initializes a new instance of the&lt;span&gt;&amp;nbsp;&lt;/span&gt;&lt;a data-href=&quot;vscode-remote://wsl%2Bubuntu-24.04/home/casonpollak/nighthawk/platformer4x-fork/assets/js/platformer/Background.js#6%2C14&quot; href=&quot;vscode-file://vscode-app/c:/Users/cason/AppData/Local/Programs/Microsoft%20VS%20Code/resources/app/out/vs/code/electron-sandbox/workbench/workbench.html&quot; title=&quot;&quot; draggable=&quot;true&quot; data-keybinding-context=&quot;5063&quot; class=&quot;chat-inline-anchor-widget show-file-icons&quot; style=&quot;border: 1px solid var(--vscode-chat-requestBorder,var(--vscode-input-background,transparent)); border-radius: 4px; font-weight: 400; margin: 0px 1px; padding: 1px 3px; text-decoration: none; text-wrap: nowrap; width: fit-content; color: inherit; user-select: text;&quot;&gt;&lt;span class=&quot;icon codicon codicon-symbol-variable predefined-file-icon&quot; style=&quot;display: inline-block; font-style: normal; font-variant: normal; font-size-adjust: none; font-kerning: auto; font-optical-sizing: auto; font-feature-settings: normal; font-variation-settings: normal; font-weight: normal; font-stretch: normal; font-size: inherit; line-height: 1em; font-family: codicon; text-align: center; text-decoration: none; text-rendering: auto; text-transform: none; -webkit-font-smoothing: antialiased; user-select: none; overflow: hidden; vertical-align: middle; top: 2px; color: var(--vscode-symbolIcon-variableForeground); position: relative;&quot;&gt;&lt;/span&gt;&lt;span class=&quot;icon-label&quot; style=&quot;padding-right: 3px; text-wrap: wrap;&quot;&gt;Background&lt;/span&gt;&lt;/a&gt;&lt;span&gt;&amp;nbsp;&lt;/span&gt;class.&lt;/li&gt;&lt;/ul&gt;&lt;/li&gt;&lt;li&gt;&lt;p style=&quot;margin: 0px;&quot;&gt;&lt;strong&gt;update()&lt;/strong&gt;&lt;/p&gt;&lt;ul style=&quot;padding-inline-start: 24px;&quot;&gt;&lt;li&gt;Updates the position of the background for scrolling and handles random events.&lt;/li&gt;&lt;/ul&gt;&lt;/li&gt;&lt;li&gt;&lt;p style=&quot;margin: 0px;&quot;&gt;&lt;strong&gt;draw()&lt;/strong&gt;&lt;/p&gt;&lt;ul style=&quot;padding-inline-start: 24px;&quot;&gt;&lt;li&gt;Draws the background image on the canvas, ensuring seamless wrapping.&lt;/li&gt;&lt;/ul&gt;&lt;/li&gt;&lt;li&gt;&lt;p style=&quot;margin: 0px;&quot;&gt;&lt;strong&gt;size()&lt;/strong&gt;&lt;/p&gt;&lt;ul style=&quot;padding-inline-start: 24px;&quot;&gt;&lt;li&gt;Sets the size of the background canvas to match the screen size and updates the game environment.&lt;/li&gt;&lt;/ul&gt;&lt;/li&gt;&lt;/ol&gt;" link="&lt;ol style=&quot;padding-inline-start: 28px; color: rgb(204, 204, 204); font-family: &amp;quot;Segoe WPC&amp;quot;, &amp;quot;Segoe UI&amp;quot;, sans-serif; font-size: 13px; font-style: normal; font-variant-ligatures: normal; font-variant-caps: normal; font-weight: 400; letter-spacing: normal; orphans: 2; text-align: start; text-indent: 0px; text-transform: none; widows: 2; word-spacing: 0px; -webkit-text-stroke-width: 0px; white-space: normal; background-color: rgb(24, 24, 24); text-decoration-thickness: initial; text-decoration-style: initial; text-decoration-color: initial;&quot;&gt;&lt;li&gt;&lt;p style=&quot;margin: 0px;&quot;&gt;&lt;strong&gt;constructor(canvas, image, data)&lt;/strong&gt;&lt;/p&gt;&lt;ul style=&quot;padding-inline-start: 24px;&quot;&gt;&lt;li&gt;Initializes a new instance of the&lt;span&gt;&amp;nbsp;&lt;/span&gt;&lt;a data-href=&quot;vscode-remote://wsl%2Bubuntu-24.04/home/casonpollak/nighthawk/platformer4x-fork/assets/js/platformer/Background.js#6%2C14&quot; href=&quot;vscode-file://vscode-app/c:/Users/cason/AppData/Local/Programs/Microsoft%20VS%20Code/resources/app/out/vs/code/electron-sandbox/workbench/workbench.html&quot; title=&quot;&quot; draggable=&quot;true&quot; data-keybinding-context=&quot;5063&quot; class=&quot;chat-inline-anchor-widget show-file-icons&quot; style=&quot;border: 1px solid var(--vscode-chat-requestBorder,var(--vscode-input-background,transparent)); border-radius: 4px; font-weight: 400; margin: 0px 1px; padding: 1px 3px; text-decoration: none; text-wrap: nowrap; width: fit-content; color: inherit; user-select: text;&quot;&gt;&lt;span class=&quot;icon codicon codicon-symbol-variable predefined-file-icon&quot; style=&quot;display: inline-block; font-style: normal; font-variant: normal; font-size-adjust: none; font-kerning: auto; font-optical-sizing: auto; font-feature-settings: normal; font-variation-settings: normal; font-weight: normal; font-stretch: normal; font-size: inherit; line-height: 1em; font-family: codicon; text-align: center; text-decoration: none; text-rendering: auto; text-transform: none; -webkit-font-smoothing: antialiased; user-select: none; overflow: hidden; vertical-align: middle; top: 2px; color: var(--vscode-symbolIcon-variableForeground); position: relative;&quot;&gt;&lt;/span&gt;&lt;span class=&quot;icon-label&quot; style=&quot;padding-right: 3px; text-wrap: wrap;&quot;&gt;Background&lt;/span&gt;&lt;/a&gt;&lt;span&gt;&amp;nbsp;&lt;/span&gt;class.&lt;/li&gt;&lt;/ul&gt;&lt;/li&gt;&lt;li&gt;&lt;p style=&quot;margin: 0px;&quot;&gt;&lt;strong&gt;update()&lt;/strong&gt;&lt;/p&gt;&lt;ul style=&quot;padding-inline-start: 24px;&quot;&gt;&lt;li&gt;Updates the position of the background for scrolling and handles random events.&lt;/li&gt;&lt;/ul&gt;&lt;/li&gt;&lt;li&gt;&lt;p style=&quot;margin: 0px;&quot;&gt;&lt;strong&gt;draw()&lt;/strong&gt;&lt;/p&gt;&lt;ul style=&quot;padding-inline-start: 24px;&quot;&gt;&lt;li&gt;Draws the background image on the canvas, ensuring seamless wrapping.&lt;/li&gt;&lt;/ul&gt;&lt;/li&gt;&lt;li&gt;&lt;p style=&quot;margin: 0px;&quot;&gt;&lt;strong&gt;size()&lt;/strong&gt;&lt;/p&gt;&lt;ul style=&quot;padding-inline-start: 24px;&quot;&gt;&lt;li&gt;Sets the size of the background canvas to match the screen size and updates the game environment.&lt;/li&gt;&lt;/ul&gt;&lt;/li&gt;&lt;/ol&gt;" id="T7eqkqiYRjG703eAOTN1-3">
          <mxCell style="text;whiteSpace=wrap;html=1;" vertex="1" parent="zkfFHV4jXpPFQw0GAbJ--17">
            <mxGeometry y="26" width="192.55" height="354" as="geometry" />
          </mxCell>
        </UserObject>
        <mxCell id="zkfFHV4jXpPFQw0GAbJ--26" value="" style="endArrow=open;shadow=0;strokeWidth=1;rounded=0;curved=0;endFill=1;edgeStyle=elbowEdgeStyle;elbow=vertical;" parent="WIyWlLk6GJQsqaUBKTNV-1" edge="1">
          <mxGeometry x="0.5" y="41" relative="1" as="geometry">
            <mxPoint x="-380.00000000000045" y="-440.0033333333333" as="sourcePoint" />
            <mxPoint x="-279.99999999999955" y="-440.0033333333333" as="targetPoint" />
            <mxPoint x="-40" y="32" as="offset" />
          </mxGeometry>
        </mxCell>
        <mxCell id="T7eqkqiYRjG703eAOTN1-2" value="&lt;ol style=&quot;padding-inline-start: 28px; color: rgb(204, 204, 204); font-family: &amp;quot;Segoe WPC&amp;quot;, &amp;quot;Segoe UI&amp;quot;, sans-serif; font-size: 13px; text-align: start; text-wrap-mode: wrap; background-color: rgb(24, 24, 24);&quot;&gt;&lt;li&gt;&lt;p style=&quot;margin: 0px;&quot;&gt;&lt;strong&gt;constructor(canvas, image, data)&lt;/strong&gt;&lt;/p&gt;&lt;ul style=&quot;padding-inline-start: 24px;&quot;&gt;&lt;li&gt;Initializes a new instance of the GameObject class.&lt;/li&gt;&lt;/ul&gt;&lt;/li&gt;&lt;li&gt;&lt;p style=&quot;margin: 0px;&quot;&gt;&lt;strong&gt;serialize()&lt;/strong&gt;&lt;/p&gt;&lt;ul style=&quot;padding-inline-start: 24px;&quot;&gt;&lt;li&gt;Extracts changes from the game object into JSON format.&lt;/li&gt;&lt;/ul&gt;&lt;/li&gt;&lt;li&gt;&lt;p style=&quot;margin: 0px;&quot;&gt;&lt;strong&gt;logElement()&lt;/strong&gt;&lt;/p&gt;&lt;ul style=&quot;padding-inline-start: 24px;&quot;&gt;&lt;li&gt;Logs the character element change.&lt;/li&gt;&lt;/ul&gt;&lt;/li&gt;&lt;li&gt;&lt;p style=&quot;margin: 0px;&quot;&gt;&lt;strong&gt;stringifyElement()&lt;/strong&gt;&lt;/p&gt;&lt;ul style=&quot;padding-inline-start: 24px;&quot;&gt;&lt;li&gt;Converts the relevant properties of the element to a string for comparison.&lt;/li&gt;&lt;/ul&gt;&lt;/li&gt;&lt;li&gt;&lt;p style=&quot;margin: 0px;&quot;&gt;&lt;strong&gt;getX()&lt;/strong&gt;&lt;/p&gt;&lt;ul style=&quot;padding-inline-start: 24px;&quot;&gt;&lt;li&gt;Getter for the x&amp;nbsp;position.&lt;/li&gt;&lt;/ul&gt;&lt;/li&gt;&lt;li&gt;&lt;p style=&quot;margin: 0px;&quot;&gt;&lt;strong&gt;getY()&lt;/strong&gt;&lt;/p&gt;&lt;ul style=&quot;padding-inline-start: 24px;&quot;&gt;&lt;li&gt;Getter for the y&amp;nbsp;position.&lt;/li&gt;&lt;/ul&gt;&lt;/li&gt;&lt;li&gt;&lt;p style=&quot;margin: 0px;&quot;&gt;&lt;strong&gt;setY(y)&lt;/strong&gt;&lt;/p&gt;&lt;ul style=&quot;padding-inline-start: 24px;&quot;&gt;&lt;li&gt;Setter for the y&amp;nbsp;position.&lt;/li&gt;&lt;/ul&gt;&lt;/li&gt;&lt;li&gt;&lt;p style=&quot;margin: 0px;&quot;&gt;&lt;strong&gt;updateInfo(json)&lt;/strong&gt;&lt;/p&gt;&lt;ul style=&quot;padding-inline-start: 24px;&quot;&gt;&lt;li&gt;Updates the game object information based on the provided JSON.&lt;/li&gt;&lt;/ul&gt;&lt;/li&gt;&lt;li&gt;&lt;p style=&quot;margin: 0px;&quot;&gt;&lt;strong&gt;destroy()&lt;/strong&gt;&lt;/p&gt;&lt;ul style=&quot;padding-inline-start: 24px;&quot;&gt;&lt;li&gt;Destroys the game object by removing its canvas element and removing it from the game object array.&lt;/li&gt;&lt;/ul&gt;&lt;/li&gt;&lt;li&gt;&lt;p style=&quot;margin: 0px;&quot;&gt;&lt;strong&gt;collisionAction()&lt;/strong&gt;&lt;/p&gt;&lt;ul style=&quot;padding-inline-start: 24px;&quot;&gt;&lt;li&gt;Default collision action, which does nothing. Intended to be overridden by subclasses.&lt;/li&gt;&lt;/ul&gt;&lt;/li&gt;&lt;li&gt;&lt;p style=&quot;margin: 0px;&quot;&gt;&lt;strong&gt;floorAction()&lt;/strong&gt;&lt;/p&gt;&lt;ul style=&quot;padding-inline-start: 24px;&quot;&gt;&lt;li&gt;Default floor action, which does nothing. Intended to be overridden by subclasses.&lt;/li&gt;&lt;/ul&gt;&lt;/li&gt;&lt;li&gt;&lt;p style=&quot;margin: 0px;&quot;&gt;&lt;strong&gt;collisionChecks()&lt;/strong&gt;&lt;/p&gt;&lt;ul style=&quot;padding-inline-start: 24px;&quot;&gt;&lt;li&gt;Checks for collisions with other game objects and calls the appropriate collision or floor action.&lt;/li&gt;&lt;/ul&gt;&lt;/li&gt;&lt;li&gt;&lt;p style=&quot;margin: 0px;&quot;&gt;&lt;strong&gt;playerTubeCollision(player, tube)&lt;/strong&gt;&lt;/p&gt;&lt;ul style=&quot;padding-inline-start: 24px;&quot;&gt;&lt;li&gt;Checks if there is a collision between the player and a tube.&lt;/li&gt;&lt;/ul&gt;&lt;/li&gt;&lt;li&gt;&lt;p style=&quot;margin: 0px;&quot;&gt;&lt;strong&gt;isCollision(other)&lt;/strong&gt;&lt;/p&gt;&lt;ul style=&quot;padding-inline-start: 24px;&quot;&gt;&lt;li&gt;Checks if there is a collision with another game object.&lt;/li&gt;&lt;/ul&gt;&lt;/li&gt;&lt;/ol&gt;" style="text;html=1;align=center;verticalAlign=middle;resizable=0;points=[];autosize=1;strokeColor=none;fillColor=none;" vertex="1" parent="WIyWlLk6GJQsqaUBKTNV-1">
          <mxGeometry x="-810" y="-370" width="660" height="480" as="geometry" />
        </mxCell>
        <mxCell id="T7eqkqiYRjG703eAOTN1-8" value="&lt;span style=&quot;color: rgba(0, 0, 0, 0); font-family: monospace; font-size: 0px; text-align: start;&quot;&gt;%3CmxGraphModel%3E%3Croot%3E%3CmxCell%20id%3D%220%22%2F%3E%3CmxCell%20id%3D%221%22%20parent%3D%220%22%2F%3E%3CmxCell%20id%3D%222%22%20value%3D%22Background.js%22%20style%3D%22swimlane%3BfontStyle%3D0%3Balign%3Dcenter%3BverticalAlign%3Dtop%3BchildLayout%3DstackLayout%3Bhorizontal%3D1%3BstartSize%3D26%3BhorizontalStack%3D0%3BresizeParent%3D1%3BresizeLast%3D0%3Bcollapsible%3D1%3BmarginBottom%3D0%3Brounded%3D0%3Bshadow%3D0%3BstrokeWidth%3D1%3B%22%20vertex%3D%221%22%20parent%3D%221%22%3E%3CmxGeometry%20x%3D%22-212.55%22%20y%3D%22-640%22%20width%3D%22192.55%22%20height%3D%22380%22%20as%3D%22geometry%22%3E%3CmxRectangle%20x%3D%22550%22%20y%3D%22140%22%20width%3D%22160%22%20height%3D%2226%22%20as%3D%22alternateBounds%22%2F%3E%3C%2FmxGeometry%3E%3C%2FmxCell%3E%3CUserObject%20label%3D%22%26lt%3Bol%20style%3D%26quot%3Bpadding-inline-start%3A%2028px%3B%20color%3A%20rgb(204%2C%20204%2C%20204)%3B%20font-family%3A%20%26amp%3Bquot%3BSegoe%20WPC%26amp%3Bquot%3B%2C%20%26amp%3Bquot%3BSegoe%20UI%26amp%3Bquot%3B%2C%20sans-serif%3B%20font-size%3A%2013px%3B%20font-style%3A%20normal%3B%20font-variant-ligatures%3A%20normal%3B%20font-variant-caps%3A%20normal%3B%20font-weight%3A%20400%3B%20letter-spacing%3A%20normal%3B%20orphans%3A%202%3B%20text-align%3A%20start%3B%20text-indent%3A%200px%3B%20text-transform%3A%20none%3B%20widows%3A%202%3B%20word-spacing%3A%200px%3B%20-webkit-text-stroke-width%3A%200px%3B%20white-space%3A%20normal%3B%20background-color%3A%20rgb(24%2C%2024%2C%2024)%3B%20text-decoration-thickness%3A%20initial%3B%20text-decoration-style%3A%20initial%3B%20text-decoration-color%3A%20initial%3B%26quot%3B%26gt%3B%26lt%3Bli%26gt%3B%26lt%3Bp%20style%3D%26quot%3Bmargin%3A%200px%3B%26quot%3B%26gt%3B%26lt%3Bstrong%26gt%3Bconstructor(canvas%2C%20image%2C%20data)%26lt%3B%2Fstrong%26gt%3B%26lt%3B%2Fp%26gt%3B%26lt%3Bul%20style%3D%26quot%3Bpadding-inline-start%3A%2024px%3B%26quot%3B%26gt%3B%26lt%3Bli%26gt%3BInitializes%20a%20new%20instance%20of%20the%26lt%3Bspan%26gt%3B%26amp%3Bnbsp%3B%26lt%3B%2Fspan%26gt%3B%26lt%3Ba%20data-href%3D%26quot%3Bvscode-remote%3A%2F%2Fwsl%252Bubuntu-24.04%2Fhome%2Fcasonpollak%2Fnighthawk%2Fplatformer4x-fork%2Fassets%2Fjs%2Fplatformer%2FBackground.js%236%252C14%26quot%3B%20href%3D%26quot%3Bvscode-file%3A%2F%2Fvscode-app%2Fc%3A%2FUsers%2Fcason%2FAppData%2FLocal%2FPrograms%2FMicrosoft%2520VS%2520Code%2Fresources%2Fapp%2Fout%2Fvs%2Fcode%2Felectron-sandbox%2Fworkbench%2Fworkbench.html%26quot%3B%20title%3D%26quot%3B%26quot%3B%20draggable%3D%26quot%3Btrue%26quot%3B%20data-keybinding-context%3D%26quot%3B5063%26quot%3B%20class%3D%26quot%3Bchat-inline-anchor-widget%20show-file-icons%26quot%3B%20style%3D%26quot%3Bborder%3A%201px%20solid%20var(--vscode-chat-requestBorder%2Cvar(--vscode-input-background%2Ctransparent))%3B%20border-radius%3A%204px%3B%20font-weight%3A%20400%3B%20margin%3A%200px%201px%3B%20padding%3A%201px%203px%3B%20text-decoration%3A%20none%3B%20text-wrap%3A%20nowrap%3B%20width%3A%20fit-content%3B%20color%3A%20inherit%3B%20user-select%3A%20text%3B%26quot%3B%26gt%3B%26lt%3Bspan%20class%3D%26quot%3Bicon%20codicon%20codicon-symbol-variable%20predefined-file-icon%26quot%3B%20style%3D%26quot%3Bdisplay%3A%20inline-block%3B%20font-style%3A%20normal%3B%20font-variant%3A%20normal%3B%20font-size-adjust%3A%20none%3B%20font-kerning%3A%20auto%3B%20font-optical-sizing%3A%20auto%3B%20font-feature-settings%3A%20normal%3B%20font-variation-settings%3A%20normal%3B%20font-weight%3A%20normal%3B%20font-stretch%3A%20normal%3B%20font-size%3A%20inherit%3B%20line-height%3A%201em%3B%20font-family%3A%20codicon%3B%20text-align%3A%20center%3B%20text-decoration%3A%20none%3B%20text-rendering%3A%20auto%3B%20text-transform%3A%20none%3B%20-webkit-font-smoothing%3A%20antialiased%3B%20user-select%3A%20none%3B%20overflow%3A%20hidden%3B%20vertical-align%3A%20middle%3B%20top%3A%202px%3B%20color%3A%20var(--vscode-symbolIcon-variableForeground)%3B%20position%3A%20relative%3B%26quot%3B%26gt%3B%26lt%3B%2Fspan%26gt%3B%26lt%3Bspan%20class%3D%26quot%3Bicon-label%26quot%3B%20style%3D%26quot%3Bpadding-right%3A%203px%3B%20text-wrap%3A%20wrap%3B%26quot%3B%26gt%3BBackground%26lt%3B%2Fspan%26gt%3B%26lt%3B%2Fa%26gt%3B%26lt%3Bspan%26gt%3B%26amp%3Bnbsp%3B%26lt%3B%2Fspan%26gt%3Bclass.%26lt%3B%2Fli%26gt%3B%26lt%3B%2Ful%26gt%3B%26lt%3B%2Fli%26gt%3B%26lt%3Bli%26gt%3B%26lt%3Bp%20style%3D%26quot%3Bmargin%3A%200px%3B%26quot%3B%26gt%3B%26lt%3Bstrong%26gt%3Bupdate()%26lt%3B%2Fstrong%26gt%3B%26lt%3B%2Fp%26gt%3B%26lt%3Bul%20style%3D%26quot%3Bpadding-inline-start%3A%2024px%3B%26quot%3B%26gt%3B%26lt%3Bli%26gt%3BUpdates%20the%20position%20of%20the%20background%20for%20scrolling%20and%20handles%20random%20events.%26lt%3B%2Fli%26gt%3B%26lt%3B%2Ful%26gt%3B%26lt%3B%2Fli%26gt%3B%26lt%3Bli%26gt%3B%26lt%3Bp%20style%3D%26quot%3Bmargin%3A%200px%3B%26quot%3B%26gt%3B%26lt%3Bstrong%26gt%3Bdraw()%26lt%3B%2Fstrong%26gt%3B%26lt%3B%2Fp%26gt%3B%26lt%3Bul%20style%3D%26quot%3Bpadding-inline-start%3A%2024px%3B%26quot%3B%26gt%3B%26lt%3Bli%26gt%3BDraws%20the%20background%20image%20on%20the%20canvas%2C%20ensuring%20seamless%20wrapping.%26lt%3B%2Fli%26gt%3B%26lt%3B%2Ful%26gt%3B%26lt%3B%2Fli%26gt%3B%26lt%3Bli%26gt%3B%26lt%3Bp%20style%3D%26quot%3Bmargin%3A%200px%3B%26quot%3B%26gt%3B%26lt%3Bstrong%26gt%3Bsize()%26lt%3B%2Fstrong%26gt%3B%26lt%3B%2Fp%26gt%3B%26lt%3Bul%20style%3D%26quot%3Bpadding-inline-start%3A%2024px%3B%26quot%3B%26gt%3B%26lt%3Bli%26gt%3BSets%20the%20size%20of%20the%20background%20canvas%20to%20match%20the%20screen%20size%20and%20updates%20the%20game%20environment.%26lt%3B%2Fli%26gt%3B%26lt%3B%2Ful%26gt%3B%26lt%3B%2Fli%26gt%3B%26lt%3B%2Fol%26gt%3B%22%20link%3D%22%26lt%3Bol%20style%3D%26quot%3Bpadding-inline-start%3A%2028px%3B%20color%3A%20rgb(204%2C%20204%2C%20204)%3B%20font-family%3A%20%26amp%3Bquot%3BSegoe%20WPC%26amp%3Bquot%3B%2C%20%26amp%3Bquot%3BSegoe%20UI%26amp%3Bquot%3B%2C%20sans-serif%3B%20font-size%3A%2013px%3B%20font-style%3A%20normal%3B%20font-variant-ligatures%3A%20normal%3B%20font-variant-caps%3A%20normal%3B%20font-weight%3A%20400%3B%20letter-spacing%3A%20normal%3B%20orphans%3A%202%3B%20text-align%3A%20start%3B%20text-indent%3A%200px%3B%20text-transform%3A%20none%3B%20widows%3A%202%3B%20word-spacing%3A%200px%3B%20-webkit-text-stroke-width%3A%200px%3B%20white-space%3A%20normal%3B%20background-color%3A%20rgb(24%2C%2024%2C%2024)%3B%20text-decoration-thickness%3A%20initial%3B%20text-decoration-style%3A%20initial%3B%20text-decoration-color%3A%20initial%3B%26quot%3B%26gt%3B%26lt%3Bli%26gt%3B%26lt%3Bp%20style%3D%26quot%3Bmargin%3A%200px%3B%26quot%3B%26gt%3B%26lt%3Bstrong%26gt%3Bconstructor(canvas%2C%20image%2C%20data)%26lt%3B%2Fstrong%26gt%3B%26lt%3B%2Fp%26gt%3B%26lt%3Bul%20style%3D%26quot%3Bpadding-inline-start%3A%2024px%3B%26quot%3B%26gt%3B%26lt%3Bli%26gt%3BInitializes%20a%20new%20instance%20of%20the%26lt%3Bspan%26gt%3B%26amp%3Bnbsp%3B%26lt%3B%2Fspan%26gt%3B%26lt%3Ba%20data-href%3D%26quot%3Bvscode-remote%3A%2F%2Fwsl%252Bubuntu-24.04%2Fhome%2Fcasonpollak%2Fnighthawk%2Fplatformer4x-fork%2Fassets%2Fjs%2Fplatformer%2FBackground.js%236%252C14%26quot%3B%20href%3D%26quot%3Bvscode-file%3A%2F%2Fvscode-app%2Fc%3A%2FUsers%2Fcason%2FAppData%2FLocal%2FPrograms%2FMicrosoft%2520VS%2520Code%2Fresources%2Fapp%2Fout%2Fvs%2Fcode%2Felectron-sandbox%2Fworkbench%2Fworkbench.html%26quot%3B%20title%3D%26quot%3B%26quot%3B%20draggable%3D%26quot%3Btrue%26quot%3B%20data-keybinding-context%3D%26quot%3B5063%26quot%3B%20class%3D%26quot%3Bchat-inline-anchor-widget%20show-file-icons%26quot%3B%20style%3D%26quot%3Bborder%3A%201px%20solid%20var(--vscode-chat-requestBorder%2Cvar(--vscode-input-background%2Ctransparent))%3B%20border-radius%3A%204px%3B%20font-weight%3A%20400%3B%20margin%3A%200px%201px%3B%20padding%3A%201px%203px%3B%20text-decoration%3A%20none%3B%20text-wrap%3A%20nowrap%3B%20width%3A%20fit-content%3B%20color%3A%20inherit%3B%20user-select%3A%20text%3B%26quot%3B%26gt%3B%26lt%3Bspan%20class%3D%26quot%3Bicon%20codicon%20codicon-symbol-variable%20predefined-file-icon%26quot%3B%20style%3D%26quot%3Bdisplay%3A%20inline-block%3B%20font-style%3A%20normal%3B%20font-variant%3A%20normal%3B%20font-size-adjust%3A%20none%3B%20font-kerning%3A%20auto%3B%20font-optical-sizing%3A%20auto%3B%20font-feature-settings%3A%20normal%3B%20font-variation-settings%3A%20normal%3B%20font-weight%3A%20normal%3B%20font-stretch%3A%20normal%3B%20font-size%3A%20inherit%3B%20line-height%3A%201em%3B%20font-family%3A%20codicon%3B%20text-align%3A%20center%3B%20text-decoration%3A%20none%3B%20text-rendering%3A%20auto%3B%20text-transform%3A%20none%3B%20-webkit-font-smoothing%3A%20antialiased%3B%20user-select%3A%20none%3B%20overflow%3A%20hidden%3B%20vertical-align%3A%20middle%3B%20top%3A%202px%3B%20color%3A%20var(--vscode-symbolIcon-variableForeground)%3B%20position%3A%20relative%3B%26quot%3B%26gt%3B%26lt%3B%2Fspan%26gt%3B%26lt%3Bspan%20class%3D%26quot%3Bicon-label%26quot%3B%20style%3D%26quot%3Bpadding-right%3A%203px%3B%20text-wrap%3A%20wrap%3B%26quot%3B%26gt%3BBackground%26lt%3B%2Fspan%26gt%3B%26lt%3B%2Fa%26gt%3B%26lt%3Bspan%26gt%3B%26amp%3Bnbsp%3B%26lt%3B%2Fspan%26gt%3Bclass.%26lt%3B%2Fli%26gt%3B%26lt%3B%2Ful%26gt%3B%26lt%3B%2Fli%26gt%3B%26lt%3Bli%26gt%3B%26lt%3Bp%20style%3D%26quot%3Bmargin%3A%200px%3B%26quot%3B%26gt%3B%26lt%3Bstrong%26gt%3Bupdate()%26lt%3B%2Fstrong%26gt%3B%26lt%3B%2Fp%26gt%3B%26lt%3Bul%20style%3D%26quot%3Bpadding-inline-start%3A%2024px%3B%26quot%3B%26gt%3B%26lt%3Bli%26gt%3BUpdates%20the%20position%20of%20the%20background%20for%20scrolling%20and%20handles%20random%20events.%26lt%3B%2Fli%26gt%3B%26lt%3B%2Ful%26gt%3B%26lt%3B%2Fli%26gt%3B%26lt%3Bli%26gt%3B%26lt%3Bp%20style%3D%26quot%3Bmargin%3A%200px%3B%26quot%3B%26gt%3B%26lt%3Bstrong%26gt%3Bdraw()%26lt%3B%2Fstrong%26gt%3B%26lt%3B%2Fp%26gt%3B%26lt%3Bul%20style%3D%26quot%3Bpadding-inline-start%3A%2024px%3B%26quot%3B%26gt%3B%26lt%3Bli%26gt%3BDraws%20the%20background%20image%20on%20the%20canvas%2C%20ensuring%20seamless%20wrapping.%26lt%3B%2Fli%26gt%3B%26lt%3B%2Ful%26gt%3B%26lt%3B%2Fli%26gt%3B%26lt%3Bli%26gt%3B%26lt%3Bp%20style%3D%26quot%3Bmargin%3A%200px%3B%26quot%3B%26gt%3B%26lt%3Bstrong%26gt%3Bsize()%26lt%3B%2Fstrong%26gt%3B%26lt%3B%2Fp%26gt%3B%26lt%3Bul%20style%3D%26quot%3Bpadding-inline-start%3A%2024px%3B%26quot%3B%26gt%3B%26lt%3Bli%26gt%3BSets%20the%20size%20of%20the%20background%20canvas%20to%20match%20the%20screen%20size%20and%20updates%20the%20game%20environment.%26lt%3B%2Fli%26gt%3B%26lt%3B%2Ful%26gt%3B%26lt%3B%2Fli%26gt%3B%26lt%3B%2Fol%26gt%3B%22%20id%3D%223%22%3E%3CmxCell%20style%3D%22text%3BwhiteSpace%3Dwrap%3Bhtml%3D1%3B%22%20vertex%3D%221%22%20parent%3D%222%22%3E%3CmxGeometry%20y%3D%2226%22%20width%3D%22192.55%22%20height%3D%22354%22%20as%3D%22geometry%22%2F%3E%3C%2FmxCell%3E%3C%2FUserObject%3E%3C%2Froot%3E%3C%2FmxGraphModel%3E&lt;/span&gt;&lt;span style=&quot;color: rgba(0, 0, 0, 0); font-family: monospace; font-size: 0px; text-align: start;&quot;&gt;%3CmxGraphModel%3E%3Croot%3E%3CmxCell%20id%3D%220%22%2F%3E%3CmxCell%20id%3D%221%22%20parent%3D%220%22%2F%3E%3CmxCell%20id%3D%222%22%20value%3D%22Background.js%22%20style%3D%22swimlane%3BfontStyle%3D0%3Balign%3Dcenter%3BverticalAlign%3Dtop%3BchildLayout%3DstackLayout%3Bhorizontal%3D1%3BstartSize%3D26%3BhorizontalStack%3D0%3BresizeParent%3D1%3BresizeLast%3D0%3Bcollapsible%3D1%3BmarginBottom%3D0%3Brounded%3D0%3Bshadow%3D0%3BstrokeWidth%3D1%3B%22%20vertex%3D%221%22%20parent%3D%221%22%3E%3CmxGeometry%20x%3D%22-212.55%22%20y%3D%22-640%22%20width%3D%22192.55%22%20height%3D%22380%22%20as%3D%22geometry%22%3E%3CmxRectangle%20x%3D%22550%22%20y%3D%22140%22%20width%3D%22160%22%20height%3D%2226%22%20as%3D%22alternateBounds%22%2F%3E%3C%2FmxGeometry%3E%3C%2FmxCell%3E%3CUserObject%20label%3D%22%26lt%3Bol%20style%3D%26quot%3Bpadding-inline-start%3A%2028px%3B%20color%3A%20rgb(204%2C%20204%2C%20204)%3B%20font-family%3A%20%26amp%3Bquot%3BSegoe%20WPC%26amp%3Bquot%3B%2C%20%26amp%3Bquot%3BSegoe%20UI%26amp%3Bquot%3B%2C%20sans-serif%3B%20font-size%3A%2013px%3B%20font-style%3A%20normal%3B%20font-variant-ligatures%3A%20normal%3B%20font-variant-caps%3A%20normal%3B%20font-weight%3A%20400%3B%20letter-spacing%3A%20normal%3B%20orphans%3A%202%3B%20text-align%3A%20start%3B%20text-indent%3A%200px%3B%20text-transform%3A%20none%3B%20widows%3A%202%3B%20word-spacing%3A%200px%3B%20-webkit-text-stroke-width%3A%200px%3B%20white-space%3A%20normal%3B%20background-color%3A%20rgb(24%2C%2024%2C%2024)%3B%20text-decoration-thickness%3A%20initial%3B%20text-decoration-style%3A%20initial%3B%20text-decoration-color%3A%20initial%3B%26quot%3B%26gt%3B%26lt%3Bli%26gt%3B%26lt%3Bp%20style%3D%26quot%3Bmargin%3A%200px%3B%26quot%3B%26gt%3B%26lt%3Bstrong%26gt%3Bconstructor(canvas%2C%20image%2C%20data)%26lt%3B%2Fstrong%26gt%3B%26lt%3B%2Fp%26gt%3B%26lt%3Bul%20style%3D%26quot%3Bpadding-inline-start%3A%2024px%3B%26quot%3B%26gt%3B%26lt%3Bli%26gt%3BInitializes%20a%20new%20instance%20of%20the%26lt%3Bspan%26gt%3B%26amp%3Bnbsp%3B%26lt%3B%2Fspan%26gt%3B%26lt%3Ba%20data-href%3D%26quot%3Bvscode-remote%3A%2F%2Fwsl%252Bubuntu-24.04%2Fhome%2Fcasonpollak%2Fnighthawk%2Fplatformer4x-fork%2Fassets%2Fjs%2Fplatformer%2FBackground.js%236%252C14%26quot%3B%20href%3D%26quot%3Bvscode-file%3A%2F%2Fvscode-app%2Fc%3A%2FUsers%2Fcason%2FAppData%2FLocal%2FPrograms%2FMicrosoft%2520VS%2520Code%2Fresources%2Fapp%2Fout%2Fvs%2Fcode%2Felectron-sandbox%2Fworkbench%2Fworkbench.html%26quot%3B%20title%3D%26quot%3B%26quot%3B%20draggable%3D%26quot%3Btrue%26quot%3B%20data-keybinding-context%3D%26quot%3B5063%26quot%3B%20class%3D%26quot%3Bchat-inline-anchor-widget%20show-file-icons%26quot%3B%20style%3D%26quot%3Bborder%3A%201px%20solid%20var(--vscode-chat-requestBorder%2Cvar(--vscode-input-background%2Ctransparent))%3B%20border-radius%3A%204px%3B%20font-weight%3A%20400%3B%20margin%3A%200px%201px%3B%20padding%3A%201px%203px%3B%20text-decoration%3A%20none%3B%20text-wrap%3A%20nowrap%3B%20width%3A%20fit-content%3B%20color%3A%20inherit%3B%20user-select%3A%20text%3B%26quot%3B%26gt%3B%26lt%3Bspan%20class%3D%26quot%3Bicon%20codicon%20codicon-symbol-variable%20predefined-file-icon%26quot%3B%20style%3D%26quot%3Bdisplay%3A%20inline-block%3B%20font-style%3A%20normal%3B%20font-variant%3A%20normal%3B%20font-size-adjust%3A%20none%3B%20font-kerning%3A%20auto%3B%20font-optical-sizing%3A%20auto%3B%20font-feature-settings%3A%20normal%3B%20font-variation-settings%3A%20normal%3B%20font-weight%3A%20normal%3B%20font-stretch%3A%20normal%3B%20font-size%3A%20inherit%3B%20line-height%3A%201em%3B%20font-family%3A%20codicon%3B%20text-align%3A%20center%3B%20text-decoration%3A%20none%3B%20text-rendering%3A%20auto%3B%20text-transform%3A%20none%3B%20-webkit-font-smoothing%3A%20antialiased%3B%20user-select%3A%20none%3B%20overflow%3A%20hidden%3B%20vertical-align%3A%20middle%3B%20top%3A%202px%3B%20color%3A%20var(--vscode-symbolIcon-variableForeground)%3B%20position%3A%20relative%3B%26quot%3B%26gt%3B%26lt%3B%2Fspan%26gt%3B%26lt%3Bspan%20class%3D%26quot%3Bicon-label%26quot%3B%20style%3D%26quot%3Bpadding-right%3A%203px%3B%20text-wrap%3A%20wrap%3B%26quot%3B%26gt%3BBackground%26lt%3B%2Fspan%26gt%3B%26lt%3B%2Fa%26gt%3B%26lt%3Bspan%26gt%3B%26amp%3Bnbsp%3B%26lt%3B%2Fspan%26gt%3Bclass.%26lt%3B%2Fli%26gt%3B%26lt%3B%2Ful%26gt%3B%26lt%3B%2Fli%26gt%3B%26lt%3Bli%26gt%3B%26lt%3Bp%20style%3D%26quot%3Bmargin%3A%200px%3B%26quot%3B%26gt%3B%26lt%3Bstrong%26gt%3Bupdate()%26lt%3B%2Fstrong%26gt%3B%26lt%3B%2Fp%26gt%3B%26lt%3Bul%20style%3D%26quot%3Bpadding-inline-start%3A%2024px%3B%26quot%3B%26gt%3B%26lt%3Bli%26gt%3BUpdates%20the%20position%20of%20the%20background%20for%20scrolling%20and%20handles%20random%20events.%26lt%3B%2Fli%26gt%3B%26lt%3B%2Ful%26gt%3B%26lt%3B%2Fli%26gt%3B%26lt%3Bli%26gt%3B%26lt%3Bp%20style%3D%26quot%3Bmargin%3A%200px%3B%26quot%3B%26gt%3B%26lt%3Bstrong%26gt%3Bdraw()%26lt%3B%2Fstrong%26gt%3B%26lt%3B%2Fp%26gt%3B%26lt%3Bul%20style%3D%26quot%3Bpadding-inline-start%3A%2024px%3B%26quot%3B%26gt%3B%26lt%3Bli%26gt%3BDraws%20the%20background%20image%20on%20the%20canvas%2C%20ensuring%20seamless%20wrapping.%26lt%3B%2Fli%26gt%3B%26lt%3B%2Ful%26gt%3B%26lt%3B%2Fli%26gt%3B%26lt%3Bli%26gt%3B%26lt%3Bp%20style%3D%26quot%3Bmargin%3A%200px%3B%26quot%3B%26gt%3B%26lt%3Bstrong%26gt%3Bsize()%26lt%3B%2Fstrong%26gt%3B%26lt%3B%2Fp%26gt%3B%26lt%3Bul%20style%3D%26quot%3Bpadding-inline-start%3A%2024px%3B%26quot%3B%26gt%3B%26lt%3Bli%26gt%3BSets%20the%20size%20of%20the%20background%20canvas%20to%20match%20the%20screen%20size%20and%20updates%20the%20game%20environment.%26lt%3B%2Fli%26gt%3B%26lt%3B%2Ful%26gt%3B%26lt%3B%2Fli%26gt%3B%26lt%3B%2Fol%26gt%3B%22%20link%3D%22%26lt%3Bol%20style%3D%26quot%3Bpadding-inline-start%3A%2028px%3B%20color%3A%20rgb(204%2C%20204%2C%20204)%3B%20font-family%3A%20%26amp%3Bquot%3BSegoe%20WPC%26amp%3Bquot%3B%2C%20%26amp%3Bquot%3BSegoe%20UI%26amp%3Bquot%3B%2C%20sans-serif%3B%20font-size%3A%2013px%3B%20font-style%3A%20normal%3B%20font-variant-ligatures%3A%20normal%3B%20font-variant-caps%3A%20normal%3B%20font-weight%3A%20400%3B%20letter-spacing%3A%20normal%3B%20orphans%3A%202%3B%20text-align%3A%20start%3B%20text-indent%3A%200px%3B%20text-transform%3A%20none%3B%20widows%3A%202%3B%20word-spacing%3A%200px%3B%20-webkit-text-stroke-width%3A%200px%3B%20white-space%3A%20normal%3B%20background-color%3A%20rgb(24%2C%2024%2C%2024)%3B%20text-decoration-thickness%3A%20initial%3B%20text-decoration-style%3A%20initial%3B%20text-decoration-color%3A%20initial%3B%26quot%3B%26gt%3B%26lt%3Bli%26gt%3B%26lt%3Bp%20style%3D%26quot%3Bmargin%3A%200px%3B%26quot%3B%26gt%3B%26lt%3Bstrong%26gt%3Bconstructor(canvas%2C%20image%2C%20data)%26lt%3B%2Fstrong%26gt%3B%26lt%3B%2Fp%26gt%3B%26lt%3Bul%20style%3D%26quot%3Bpadding-inline-start%3A%2024px%3B%26quot%3B%26gt%3B%26lt%3Bli%26gt%3BInitializes%20a%20new%20instance%20of%20the%26lt%3Bspan%26gt%3B%26amp%3Bnbsp%3B%26lt%3B%2Fspan%26gt%3B%26lt%3Ba%20data-href%3D%26quot%3Bvscode-remote%3A%2F%2Fwsl%252Bubuntu-24.04%2Fhome%2Fcasonpollak%2Fnighthawk%2Fplatformer4x-fork%2Fassets%2Fjs%2Fplatformer%2FBackground.js%236%252C14%26quot%3B%20href%3D%26quot%3Bvscode-file%3A%2F%2Fvscode-app%2Fc%3A%2FUsers%2Fcason%2FAppData%2FLocal%2FPrograms%2FMicrosoft%2520VS%2520Code%2Fresources%2Fapp%2Fout%2Fvs%2Fcode%2Felectron-sandbox%2Fworkbench%2Fworkbench.html%26quot%3B%20title%3D%26quot%3B%26quot%3B%20draggable%3D%26quot%3Btrue%26quot%3B%20data-keybinding-context%3D%26quot%3B5063%26quot%3B%20class%3D%26quot%3Bchat-inline-anchor-widget%20show-file-icons%26quot%3B%20style%3D%26quot%3Bborder%3A%201px%20solid%20var(--vscode-chat-requestBorder%2Cvar(--vscode-input-background%2Ctransparent))%3B%20border-radius%3A%204px%3B%20font-weight%3A%20400%3B%20margin%3A%200px%201px%3B%20padding%3A%201px%203px%3B%20text-decoration%3A%20none%3B%20text-wrap%3A%20nowrap%3B%20width%3A%20fit-content%3B%20color%3A%20inherit%3B%20user-select%3A%20text%3B%26quot%3B%26gt%3B%26lt%3Bspan%20class%3D%26quot%3Bicon%20codicon%20codicon-symbol-variable%20predefined-file-icon%26quot%3B%20style%3D%26quot%3Bdisplay%3A%20inline-block%3B%20font-style%3A%20normal%3B%20font-variant%3A%20normal%3B%20font-size-adjust%3A%20none%3B%20font-kerning%3A%20auto%3B%20font-optical-sizing%3A%20auto%3B%20font-feature-settings%3A%20normal%3B%20font-variation-settings%3A%20normal%3B%20font-weight%3A%20normal%3B%20font-stretch%3A%20normal%3B%20font-size%3A%20inherit%3B%20line-height%3A%201em%3B%20font-family%3A%20codicon%3B%20text-align%3A%20center%3B%20text-decoration%3A%20none%3B%20text-rendering%3A%20auto%3B%20text-transform%3A%20none%3B%20-webkit-font-smoothing%3A%20antialiased%3B%20user-select%3A%20none%3B%20overflow%3A%20hidden%3B%20vertical-align%3A%20middle%3B%20top%3A%202px%3B%20color%3A%20var(--vscode-symbolIcon-variableForeground)%3B%20position%3A%20relative%3B%26quot%3B%26gt%3B%26lt%3B%2Fspan%26gt%3B%26lt%3Bspan%20class%3D%26quot%3Bicon-label%26quot%3B%20style%3D%26quot%3Bpadding-right%3A%203px%3B%20text-wrap%3A%20wrap%3B%26quot%3B%26gt%3BBackground%26lt%3B%2Fspan%26gt%3B%26lt%3B%2Fa%26gt%3B%26lt%3Bspan%26gt%3B%26amp%3Bnbsp%3B%26lt%3B%2Fspan%26gt%3Bclass.%26lt%3B%2Fli%26gt%3B%26lt%3B%2Ful%26gt%3B%26lt%3B%2Fli%26gt%3B%26lt%3Bli%26gt%3B%26lt%3Bp%20style%3D%26quot%3Bmargin%3A%200px%3B%26quot%3B%26gt%3B%26lt%3Bstrong%26gt%3Bupdate()%26lt%3B%2Fstrong%26gt%3B%26lt%3B%2Fp%26gt%3B%26lt%3Bul%20style%3D%26quot%3Bpadding-inline-start%3A%2024px%3B%26quot%3B%26gt%3B%26lt%3Bli%26gt%3BUpdates%20the%20position%20of%20the%20background%20for%20scrolling%20and%20handles%20random%20events.%26lt%3B%2Fli%26gt%3B%26lt%3B%2Ful%26gt%3B%26lt%3B%2Fli%26gt%3B%26lt%3Bli%26gt%3B%26lt%3Bp%20style%3D%26quot%3Bmargin%3A%200px%3B%26quot%3B%26gt%3B%26lt%3Bstrong%26gt%3Bdraw()%26lt%3B%2Fstrong%26gt%3B%26lt%3B%2Fp%26gt%3B%26lt%3Bul%20style%3D%26quot%3Bpadding-inline-start%3A%2024px%3B%26quot%3B%26gt%3B%26lt%3Bli%26gt%3BDraws%20the%20background%20image%20on%20the%20canvas%2C%20ensuring%20seamless%20wrapping.%26lt%3B%2Fli%26gt%3B%26lt%3B%2Ful%26gt%3B%26lt%3B%2Fli%26gt%3B%26lt%3Bli%26gt%3B%26lt%3Bp%20style%3D%26quot%3Bmargin%3A%200px%3B%26quot%3B%26gt%3B%26lt%3Bstrong%26gt%3Bsize()%26lt%3B%2Fstrong%26gt%3B%26lt%3B%2Fp%26gt%3B%26lt%3Bul%20style%3D%26quot%3Bpadding-inline-start%3A%2024px%3B%26quot%3B%26gt%3B%26lt%3Bli%26gt%3BSets%20the%20size%20of%20the%20background%20canvas%20to%20match%20the%20screen%20size%20and%20updates%20the%20game%20environment.%26lt%3B%2Fli%26gt%3B%26lt%3B%2Ful%26gt%3B%26lt%3B%2Fli%26gt%3B%26lt%3B%2Fol%26gt%3B%22%20id%3D%223%22%3E%3CmxCell%20style%3D%22text%3BwhiteSpace%3Dwrap%3Bhtml%3D1%3B%22%20vertex%3D%221%22%20parent%3D%222%22%3E%3CmxGeometry%20y%3D%2226%22%20width%3D%22192.55%22%20height%3D%22354%22%20as%3D%22geometry%22%2F%3E%3C%2FmxCell%3E%3C%2FUserObject%3E%3C%2Froot%3E%3C%2FmxGraphModel%3E&lt;/span&gt;" style="text;html=1;align=center;verticalAlign=middle;resizable=0;points=[];autosize=1;strokeColor=none;fillColor=none;" vertex="1" parent="WIyWlLk6GJQsqaUBKTNV-1">
          <mxGeometry x="-820" y="-512" width="20" height="30" as="geometry" />
        </mxCell>
        <mxCell id="T7eqkqiYRjG703eAOTN1-9" value="Character.js" style="swimlane;fontStyle=0;align=center;verticalAlign=top;childLayout=stackLayout;horizontal=1;startSize=26;horizontalStack=0;resizeParent=1;resizeLast=0;collapsible=1;marginBottom=0;rounded=0;shadow=0;strokeWidth=1;" vertex="1" parent="WIyWlLk6GJQsqaUBKTNV-1">
          <mxGeometry x="-870" y="-640" width="220" height="880" as="geometry">
            <mxRectangle x="550" y="140" width="160" height="26" as="alternateBounds" />
          </mxGeometry>
        </mxCell>
        <mxCell id="T7eqkqiYRjG703eAOTN1-15" style="edgeStyle=orthogonalEdgeStyle;rounded=0;orthogonalLoop=1;jettySize=auto;html=1;" edge="1" parent="T7eqkqiYRjG703eAOTN1-9" source="T7eqkqiYRjG703eAOTN1-14">
          <mxGeometry relative="1" as="geometry">
            <mxPoint x="-110" y="443" as="targetPoint" />
          </mxGeometry>
        </mxCell>
        <mxCell id="T7eqkqiYRjG703eAOTN1-14" value="&lt;ol style=&quot;padding-inline-start: 28px; color: rgb(204, 204, 204); font-family: &amp;quot;Segoe WPC&amp;quot;, &amp;quot;Segoe UI&amp;quot;, sans-serif; font-size: 13px; font-style: normal; font-variant-ligatures: normal; font-variant-caps: normal; font-weight: 400; letter-spacing: normal; orphans: 2; text-align: start; text-indent: 0px; text-transform: none; widows: 2; word-spacing: 0px; -webkit-text-stroke-width: 0px; white-space: normal; background-color: rgb(24, 24, 24); text-decoration-thickness: initial; text-decoration-style: initial; text-decoration-color: initial;&quot;&gt;&lt;li&gt;&lt;p style=&quot;margin: 0px;&quot;&gt;&lt;strong&gt;constructor(canvas, image, data)&lt;/strong&gt;&lt;/p&gt;&lt;ul style=&quot;padding-inline-start: 24px;&quot;&gt;&lt;li&gt;Initializes a new instance of the&amp;nbsp;Character class.&lt;/li&gt;&lt;/ul&gt;&lt;/li&gt;&lt;li&gt;&lt;p style=&quot;margin: 0px;&quot;&gt;&lt;strong&gt;setSpriteAnimation(animation)&lt;/strong&gt;&lt;/p&gt;&lt;ul style=&quot;padding-inline-start: 24px;&quot;&gt;&lt;li&gt;Sets the sprite animation for the character.&lt;/li&gt;&lt;/ul&gt;&lt;/li&gt;&lt;li&gt;&lt;p style=&quot;margin: 0px;&quot;&gt;&lt;strong&gt;getMinFrame()&lt;/strong&gt;&lt;/p&gt;&lt;ul style=&quot;padding-inline-start: 24px;&quot;&gt;&lt;li&gt;Gets the minimum frame of the animation.&lt;/li&gt;&lt;/ul&gt;&lt;/li&gt;&lt;li&gt;&lt;p style=&quot;margin: 0px;&quot;&gt;&lt;strong&gt;setMinFrame(minFrame)&lt;/strong&gt;&lt;/p&gt;&lt;ul style=&quot;padding-inline-start: 24px;&quot;&gt;&lt;li&gt;Sets the minimum frame of the animation.&lt;/li&gt;&lt;/ul&gt;&lt;/li&gt;&lt;li&gt;&lt;p style=&quot;margin: 0px;&quot;&gt;&lt;strong&gt;getMaxFrame()&lt;/strong&gt;&lt;/p&gt;&lt;ul style=&quot;padding-inline-start: 24px;&quot;&gt;&lt;li&gt;Gets the maximum frame of the animation.&lt;/li&gt;&lt;/ul&gt;&lt;/li&gt;&lt;li&gt;&lt;p style=&quot;margin: 0px;&quot;&gt;&lt;strong&gt;setMaxFrame(maxFrame)&lt;/strong&gt;&lt;/p&gt;&lt;ul style=&quot;padding-inline-start: 24px;&quot;&gt;&lt;li&gt;Sets the maximum frame of the animation.&lt;/li&gt;&lt;/ul&gt;&lt;/li&gt;&lt;li&gt;&lt;p style=&quot;margin: 0px;&quot;&gt;&lt;strong&gt;getFrameX()&lt;/strong&gt;&lt;/p&gt;&lt;ul style=&quot;padding-inline-start: 24px;&quot;&gt;&lt;li&gt;Gets the current frame X of the animation.&lt;/li&gt;&lt;/ul&gt;&lt;/li&gt;&lt;li&gt;&lt;p style=&quot;margin: 0px;&quot;&gt;&lt;strong&gt;setFrameX(frameX)&lt;/strong&gt;&lt;/p&gt;&lt;ul style=&quot;padding-inline-start: 24px;&quot;&gt;&lt;li&gt;Sets the current frame X of the animation.&lt;/li&gt;&lt;/ul&gt;&lt;/li&gt;&lt;li&gt;&lt;p style=&quot;margin: 0px;&quot;&gt;&lt;strong&gt;getFrameY()&lt;/strong&gt;&lt;/p&gt;&lt;ul style=&quot;padding-inline-start: 24px;&quot;&gt;&lt;li&gt;Gets the current frame Y of the animation.&lt;/li&gt;&lt;/ul&gt;&lt;/li&gt;&lt;li&gt;&lt;p style=&quot;margin: 0px;&quot;&gt;&lt;strong&gt;setFrameY(frameY)&lt;/strong&gt;&lt;/p&gt;&lt;ul style=&quot;padding-inline-start: 24px;&quot;&gt;&lt;li&gt;Sets the current frame Y of the animation.&lt;/li&gt;&lt;/ul&gt;&lt;/li&gt;&lt;li&gt;&lt;p style=&quot;margin: 0px;&quot;&gt;&lt;strong&gt;updateInfo(json)&lt;/strong&gt;&lt;/p&gt;&lt;ul style=&quot;padding-inline-start: 24px;&quot;&gt;&lt;li&gt;Updates the character information based on the provided JSON.&lt;/li&gt;&lt;/ul&gt;&lt;/li&gt;&lt;li&gt;&lt;p style=&quot;margin: 0px;&quot;&gt;&lt;strong&gt;draw()&lt;/strong&gt;&lt;/p&gt;&lt;ul style=&quot;padding-inline-start: 24px;&quot;&gt;&lt;li&gt;Draws the character object on the canvas.&lt;/li&gt;&lt;/ul&gt;&lt;/li&gt;&lt;li&gt;&lt;p style=&quot;margin: 0px;&quot;&gt;&lt;strong&gt;size()&lt;/strong&gt;&lt;/p&gt;&lt;ul style=&quot;padding-inline-start: 24px;&quot;&gt;&lt;li&gt;Sizes the character in proportion to the screen size.&lt;/li&gt;&lt;/ul&gt;&lt;/li&gt;&lt;li&gt;&lt;p style=&quot;margin: 0px;&quot;&gt;&lt;strong&gt;updateY()&lt;/strong&gt;&lt;/p&gt;&lt;ul style=&quot;padding-inline-start: 24px;&quot;&gt;&lt;li&gt;Updates the Y position and related states of the character.&lt;/li&gt;&lt;/ul&gt;&lt;/li&gt;&lt;li&gt;&lt;p style=&quot;margin: 0px;&quot;&gt;&lt;strong&gt;updateFrameX()&lt;/strong&gt;&lt;/p&gt;&lt;ul style=&quot;padding-inline-start: 24px;&quot;&gt;&lt;li&gt;Cycles through the frame X of the character.&lt;/li&gt;&lt;/ul&gt;&lt;/li&gt;&lt;li&gt;&lt;p style=&quot;margin: 0px;&quot;&gt;&lt;strong&gt;update()&lt;/strong&gt;&lt;/p&gt;&lt;ul style=&quot;padding-inline-start: 24px;&quot;&gt;&lt;li&gt;Updates the character&#39;s position, animation frame, and checks for collisions.&lt;/li&gt;&lt;/ul&gt;&lt;/li&gt;&lt;/ol&gt;" style="text;whiteSpace=wrap;html=1;" vertex="1" parent="T7eqkqiYRjG703eAOTN1-9">
          <mxGeometry y="26" width="220" height="834" as="geometry" />
        </mxCell>
        <mxCell id="T7eqkqiYRjG703eAOTN1-12" value="" style="edgeStyle=none;orthogonalLoop=1;jettySize=auto;html=1;rounded=0;" edge="1" parent="WIyWlLk6GJQsqaUBKTNV-1">
          <mxGeometry width="100" relative="1" as="geometry">
            <mxPoint x="-620" y="-443" as="sourcePoint" />
            <mxPoint x="-650" y="-443" as="targetPoint" />
            <Array as="points">
              <mxPoint x="-580" y="-442.56" />
            </Array>
          </mxGeometry>
        </mxCell>
        <mxCell id="T7eqkqiYRjG703eAOTN1-17" value="Enemy.js" style="swimlane;fontStyle=0;align=center;verticalAlign=top;childLayout=stackLayout;horizontal=1;startSize=26;horizontalStack=0;resizeParent=1;resizeLast=0;collapsible=1;marginBottom=0;rounded=0;shadow=0;strokeWidth=1;" vertex="1" parent="WIyWlLk6GJQsqaUBKTNV-1">
          <mxGeometry x="-1170" y="-640" width="192.55" height="600" as="geometry">
            <mxRectangle x="550" y="140" width="160" height="26" as="alternateBounds" />
          </mxGeometry>
        </mxCell>
        <UserObject label="&lt;ol style=&quot;padding-inline-start: 28px; color: rgb(204, 204, 204); font-family: &amp;quot;Segoe WPC&amp;quot;, &amp;quot;Segoe UI&amp;quot;, sans-serif; font-size: 13px; font-style: normal; font-variant-ligatures: normal; font-variant-caps: normal; font-weight: 400; letter-spacing: normal; orphans: 2; text-align: start; text-indent: 0px; text-transform: none; widows: 2; word-spacing: 0px; -webkit-text-stroke-width: 0px; white-space: normal; background-color: rgb(24, 24, 24); text-decoration-thickness: initial; text-decoration-style: initial; text-decoration-color: initial;&quot;&gt;&lt;li&gt;&lt;p style=&quot;margin: 0px;&quot;&gt;&lt;strong&gt;constructor(canvas, image, data, xPercentage, yPercentage, name, minPosition)&lt;/strong&gt;&lt;/p&gt;&lt;ul style=&quot;padding-inline-start: 24px;&quot;&gt;&lt;li&gt;Initializes a new instance of the&lt;span&gt;&amp;nbsp;&lt;/span&gt;&lt;a data-href=&quot;vscode-remote://wsl%2Bubuntu-24.04/home/casonpollak/nighthawk/platformer4x-fork/assets/js/platformer/Enemy.js#5%2C14&quot; href=&quot;vscode-file://vscode-app/c:/Users/cason/AppData/Local/Programs/Microsoft%20VS%20Code/resources/app/out/vs/code/electron-sandbox/workbench/workbench.html&quot; title=&quot;&quot; draggable=&quot;true&quot; data-keybinding-context=&quot;7509&quot; class=&quot;chat-inline-anchor-widget show-file-icons&quot; style=&quot;border: 1px solid var(--vscode-chat-requestBorder,var(--vscode-input-background,transparent)); border-radius: 4px; font-weight: 400; margin: 0px 1px; padding: 1px 3px; text-decoration: none; text-wrap: nowrap; width: fit-content; color: inherit; user-select: text;&quot;&gt;&lt;span class=&quot;icon codicon codicon-symbol-variable predefined-file-icon&quot; style=&quot;display: inline-block; font-style: normal; font-variant: normal; font-size-adjust: none; font-kerning: auto; font-optical-sizing: auto; font-feature-settings: normal; font-variation-settings: normal; font-weight: normal; font-stretch: normal; font-size: inherit; line-height: 1em; font-family: codicon; text-align: center; text-decoration: none; text-rendering: auto; text-transform: none; -webkit-font-smoothing: antialiased; user-select: none; overflow: hidden; vertical-align: middle; top: 2px; color: var(--vscode-symbolIcon-variableForeground); position: relative;&quot;&gt;&lt;/span&gt;&lt;span class=&quot;icon-label&quot; style=&quot;padding-right: 3px; text-wrap: wrap;&quot;&gt;Enemy&lt;/span&gt;&lt;/a&gt;&lt;span&gt;&amp;nbsp;&lt;/span&gt;class.&lt;/li&gt;&lt;/ul&gt;&lt;/li&gt;&lt;li&gt;&lt;p style=&quot;margin: 0px;&quot;&gt;&lt;strong&gt;setAnimation(key)&lt;/strong&gt;&lt;/p&gt;&lt;ul style=&quot;padding-inline-start: 24px;&quot;&gt;&lt;li&gt;Sets the animation for the enemy based on the provided key.&lt;/li&gt;&lt;/ul&gt;&lt;/li&gt;&lt;li&gt;&lt;p style=&quot;margin: 0px;&quot;&gt;&lt;strong&gt;enemySpeed()&lt;/strong&gt;&lt;/p&gt;&lt;ul style=&quot;padding-inline-start: 24px;&quot;&gt;&lt;li&gt;Adjusts the speed of the enemy based on the game difficulty.&lt;/li&gt;&lt;/ul&gt;&lt;/li&gt;&lt;li&gt;&lt;p style=&quot;margin: 0px;&quot;&gt;&lt;strong&gt;checkBoundaries()&lt;/strong&gt;&lt;/p&gt;&lt;ul style=&quot;padding-inline-start: 24px;&quot;&gt;&lt;li&gt;Checks if the enemy has reached the boundaries and updates its direction accordingly.&lt;/li&gt;&lt;/ul&gt;&lt;/li&gt;&lt;li&gt;&lt;p style=&quot;margin: 0px;&quot;&gt;&lt;strong&gt;updateMovement()&lt;/strong&gt;&lt;/p&gt;&lt;ul style=&quot;padding-inline-start: 24px;&quot;&gt;&lt;li&gt;Updates the movement of the enemy based on its current animation state.&lt;/li&gt;&lt;/ul&gt;&lt;/li&gt;&lt;li&gt;&lt;p style=&quot;margin: 0px;&quot;&gt;&lt;strong&gt;update()&lt;/strong&gt;&lt;/p&gt;&lt;ul style=&quot;padding-inline-start: 24px;&quot;&gt;&lt;li&gt;Updates the enemy&#39;s state, including animation, boundaries, and movement.&lt;/li&gt;&lt;/ul&gt;&lt;/li&gt;&lt;li&gt;&lt;p style=&quot;margin: 0px;&quot;&gt;&lt;strong&gt;collisionAction()&lt;/strong&gt;&lt;/p&gt;&lt;ul style=&quot;padding-inline-start: 24px;&quot;&gt;&lt;li&gt;Defines the actions to be taken when the enemy collides with another object.&lt;/li&gt;&lt;/ul&gt;&lt;/li&gt;&lt;/ol&gt;" link="&lt;ol style=&quot;padding-inline-start: 28px; color: rgb(204, 204, 204); font-family: &amp;quot;Segoe WPC&amp;quot;, &amp;quot;Segoe UI&amp;quot;, sans-serif; font-size: 13px; font-style: normal; font-variant-ligatures: normal; font-variant-caps: normal; font-weight: 400; letter-spacing: normal; orphans: 2; text-align: start; text-indent: 0px; text-transform: none; widows: 2; word-spacing: 0px; -webkit-text-stroke-width: 0px; white-space: normal; background-color: rgb(24, 24, 24); text-decoration-thickness: initial; text-decoration-style: initial; text-decoration-color: initial;&quot;&gt;&lt;li&gt;&lt;p style=&quot;margin: 0px;&quot;&gt;&lt;strong&gt;constructor(canvas, image, data, xPercentage, yPercentage, name, minPosition)&lt;/strong&gt;&lt;/p&gt;&lt;ul style=&quot;padding-inline-start: 24px;&quot;&gt;&lt;li&gt;Initializes a new instance of the&lt;span&gt;&amp;nbsp;&lt;/span&gt;&lt;a data-href=&quot;vscode-remote://wsl%2Bubuntu-24.04/home/casonpollak/nighthawk/platformer4x-fork/assets/js/platformer/Enemy.js#5%2C14&quot; href=&quot;vscode-file://vscode-app/c:/Users/cason/AppData/Local/Programs/Microsoft%20VS%20Code/resources/app/out/vs/code/electron-sandbox/workbench/workbench.html&quot; title=&quot;&quot; draggable=&quot;true&quot; data-keybinding-context=&quot;7509&quot; class=&quot;chat-inline-anchor-widget show-file-icons&quot; style=&quot;border: 1px solid var(--vscode-chat-requestBorder,var(--vscode-input-background,transparent)); border-radius: 4px; font-weight: 400; margin: 0px 1px; padding: 1px 3px; text-decoration: none; text-wrap: nowrap; width: fit-content; color: inherit; user-select: text;&quot;&gt;&lt;span class=&quot;icon codicon codicon-symbol-variable predefined-file-icon&quot; style=&quot;display: inline-block; font-style: normal; font-variant: normal; font-size-adjust: none; font-kerning: auto; font-optical-sizing: auto; font-feature-settings: normal; font-variation-settings: normal; font-weight: normal; font-stretch: normal; font-size: inherit; line-height: 1em; font-family: codicon; text-align: center; text-decoration: none; text-rendering: auto; text-transform: none; -webkit-font-smoothing: antialiased; user-select: none; overflow: hidden; vertical-align: middle; top: 2px; color: var(--vscode-symbolIcon-variableForeground); position: relative;&quot;&gt;&lt;/span&gt;&lt;span class=&quot;icon-label&quot; style=&quot;padding-right: 3px; text-wrap: wrap;&quot;&gt;Enemy&lt;/span&gt;&lt;/a&gt;&lt;span&gt;&amp;nbsp;&lt;/span&gt;class.&lt;/li&gt;&lt;/ul&gt;&lt;/li&gt;&lt;li&gt;&lt;p style=&quot;margin: 0px;&quot;&gt;&lt;strong&gt;setAnimation(key)&lt;/strong&gt;&lt;/p&gt;&lt;ul style=&quot;padding-inline-start: 24px;&quot;&gt;&lt;li&gt;Sets the animation for the enemy based on the provided key.&lt;/li&gt;&lt;/ul&gt;&lt;/li&gt;&lt;li&gt;&lt;p style=&quot;margin: 0px;&quot;&gt;&lt;strong&gt;enemySpeed()&lt;/strong&gt;&lt;/p&gt;&lt;ul style=&quot;padding-inline-start: 24px;&quot;&gt;&lt;li&gt;Adjusts the speed of the enemy based on the game difficulty.&lt;/li&gt;&lt;/ul&gt;&lt;/li&gt;&lt;li&gt;&lt;p style=&quot;margin: 0px;&quot;&gt;&lt;strong&gt;checkBoundaries()&lt;/strong&gt;&lt;/p&gt;&lt;ul style=&quot;padding-inline-start: 24px;&quot;&gt;&lt;li&gt;Checks if the enemy has reached the boundaries and updates its direction accordingly.&lt;/li&gt;&lt;/ul&gt;&lt;/li&gt;&lt;li&gt;&lt;p style=&quot;margin: 0px;&quot;&gt;&lt;strong&gt;updateMovement()&lt;/strong&gt;&lt;/p&gt;&lt;ul style=&quot;padding-inline-start: 24px;&quot;&gt;&lt;li&gt;Updates the movement of the enemy based on its current animation state.&lt;/li&gt;&lt;/ul&gt;&lt;/li&gt;&lt;li&gt;&lt;p style=&quot;margin: 0px;&quot;&gt;&lt;strong&gt;update()&lt;/strong&gt;&lt;/p&gt;&lt;ul style=&quot;padding-inline-start: 24px;&quot;&gt;&lt;li&gt;Updates the enemy&#39;s state, including animation, boundaries, and movement.&lt;/li&gt;&lt;/ul&gt;&lt;/li&gt;&lt;li&gt;&lt;p style=&quot;margin: 0px;&quot;&gt;&lt;strong&gt;collisionAction()&lt;/strong&gt;&lt;/p&gt;&lt;ul style=&quot;padding-inline-start: 24px;&quot;&gt;&lt;li&gt;Defines the actions to be taken when the enemy collides with another object.&lt;/li&gt;&lt;/ul&gt;&lt;/li&gt;&lt;/ol&gt;" id="T7eqkqiYRjG703eAOTN1-16">
          <mxCell style="text;whiteSpace=wrap;html=1;" vertex="1" parent="T7eqkqiYRjG703eAOTN1-17">
            <mxGeometry y="26" width="192.55" height="574" as="geometry" />
          </mxCell>
        </UserObject>
        <mxCell id="T7eqkqiYRjG703eAOTN1-21" value="" style="endArrow=open;shadow=0;strokeWidth=1;rounded=0;curved=0;endFill=1;edgeStyle=elbowEdgeStyle;elbow=vertical;" edge="1" parent="WIyWlLk6GJQsqaUBKTNV-1">
          <mxGeometry x="0.5" y="41" relative="1" as="geometry">
            <mxPoint x="-380.00000000000045" y="-159.31333333333328" as="sourcePoint" />
            <mxPoint x="-279.99999999999955" y="-159.31333333333328" as="targetPoint" />
            <mxPoint x="-40" y="32" as="offset" />
          </mxGeometry>
        </mxCell>
        <mxCell id="T7eqkqiYRjG703eAOTN1-23" value="Platform.js" style="swimlane;fontStyle=0;align=center;verticalAlign=top;childLayout=stackLayout;horizontal=1;startSize=26;horizontalStack=0;resizeParent=1;resizeLast=0;collapsible=1;marginBottom=0;rounded=0;shadow=0;strokeWidth=1;" vertex="1" parent="WIyWlLk6GJQsqaUBKTNV-1">
          <mxGeometry x="-280" y="-210" width="192.55" height="390" as="geometry">
            <mxRectangle x="550" y="140" width="160" height="26" as="alternateBounds" />
          </mxGeometry>
        </mxCell>
        <UserObject label="&#xa;&lt;ol style=&quot;padding-inline-start: 28px; color: rgb(204, 204, 204); font-family: &amp;quot;Segoe WPC&amp;quot;, &amp;quot;Segoe UI&amp;quot;, sans-serif; font-size: 13px; font-style: normal; font-variant-ligatures: normal; font-variant-caps: normal; font-weight: 400; letter-spacing: normal; orphans: 2; text-align: start; text-indent: 0px; text-transform: none; widows: 2; word-spacing: 0px; -webkit-text-stroke-width: 0px; white-space: normal; background-color: rgb(24, 24, 24); text-decoration-thickness: initial; text-decoration-style: initial; text-decoration-color: initial;&quot;&gt;&lt;li&gt;&lt;p style=&quot;margin: 0px;&quot;&gt;&lt;strong&gt;constructor(canvas, image, data)&lt;/strong&gt;&lt;/p&gt;&lt;ul style=&quot;padding-inline-start: 24px;&quot;&gt;&lt;li&gt;Initializes a new instance of the&lt;span&gt;&amp;nbsp;&lt;/span&gt;&lt;a style=&quot;border: 1px solid var(--vscode-chat-requestBorder,var(--vscode-input-background,transparent)); border-radius: 4px; font-weight: 400; margin: 0px 1px; padding: 1px 3px; text-decoration: none; text-wrap: nowrap; width: fit-content; color: inherit; user-select: text;&quot; class=&quot;chat-inline-anchor-widget show-file-icons&quot; data-keybinding-context=&quot;8006&quot; draggable=&quot;true&quot; title=&quot;&quot; href=&quot;vscode-file://vscode-app/c:/Users/cason/AppData/Local/Programs/Microsoft%20VS%20Code/resources/app/out/vs/code/electron-sandbox/workbench/workbench.html&quot; data-href=&quot;vscode-remote://wsl%2Bubuntu-24.04/home/casonpollak/nighthawk/platformer4x-fork/assets/js/platformer/Platform.js#4%2C14&quot;&gt;&lt;span style=&quot;display: inline-block; font-style: normal; font-variant: normal; font-size-adjust: none; font-kerning: auto; font-optical-sizing: auto; font-feature-settings: normal; font-variation-settings: normal; font-weight: normal; font-stretch: normal; font-size: inherit; line-height: 1em; font-family: codicon; text-align: center; text-decoration: none; text-rendering: auto; text-transform: none; -webkit-font-smoothing: antialiased; user-select: none; overflow: hidden; vertical-align: middle; top: 2px; color: var(--vscode-symbolIcon-variableForeground); position: relative;&quot; class=&quot;icon codicon codicon-symbol-variable predefined-file-icon&quot;&gt;&lt;/span&gt;&lt;span style=&quot;padding-right: 3px; text-wrap: wrap;&quot; class=&quot;icon-label&quot;&gt;Platform&lt;/span&gt;&lt;/a&gt;&lt;span&gt;&amp;nbsp;&lt;/span&gt;class.&lt;/li&gt;&lt;/ul&gt;&lt;/li&gt;&lt;li&gt;&lt;p style=&quot;margin: 0px;&quot;&gt;&lt;strong&gt;update()&lt;/strong&gt;&lt;/p&gt;&lt;ul style=&quot;padding-inline-start: 24px;&quot;&gt;&lt;li&gt;Updates the position of the platform for scrolling.&lt;/li&gt;&lt;/ul&gt;&lt;/li&gt;&lt;li&gt;&lt;p style=&quot;margin: 0px;&quot;&gt;&lt;strong&gt;draw()&lt;/strong&gt;&lt;/p&gt;&lt;ul style=&quot;padding-inline-start: 24px;&quot;&gt;&lt;li&gt;Draws the platform image on the canvas, ensuring seamless wrapping.&lt;/li&gt;&lt;/ul&gt;&lt;/li&gt;&lt;li&gt;&lt;p style=&quot;margin: 0px;&quot;&gt;&lt;strong&gt;size()&lt;/strong&gt;&lt;/p&gt;&lt;ul style=&quot;padding-inline-start: 24px;&quot;&gt;&lt;li&gt;Sets the size of the platform canvas to match the screen size and updates the game environment.&lt;/li&gt;&lt;/ul&gt;&lt;/li&gt;&lt;/ol&gt;&#xa;&#xa;" link="&#xa;&lt;ol style=&quot;padding-inline-start: 28px; color: rgb(204, 204, 204); font-family: &amp;quot;Segoe WPC&amp;quot;, &amp;quot;Segoe UI&amp;quot;, sans-serif; font-size: 13px; font-style: normal; font-variant-ligatures: normal; font-variant-caps: normal; font-weight: 400; letter-spacing: normal; orphans: 2; text-align: start; text-indent: 0px; text-transform: none; widows: 2; word-spacing: 0px; -webkit-text-stroke-width: 0px; white-space: normal; background-color: rgb(24, 24, 24); text-decoration-thickness: initial; text-decoration-style: initial; text-decoration-color: initial;&quot;&gt;&lt;li&gt;&lt;p style=&quot;margin: 0px;&quot;&gt;&lt;strong&gt;constructor(canvas, image, data)&lt;/strong&gt;&lt;/p&gt;&lt;ul style=&quot;padding-inline-start: 24px;&quot;&gt;&lt;li&gt;Initializes a new instance of the&lt;span&gt;&amp;nbsp;&lt;/span&gt;&lt;a style=&quot;border: 1px solid var(--vscode-chat-requestBorder,var(--vscode-input-background,transparent)); border-radius: 4px; font-weight: 400; margin: 0px 1px; padding: 1px 3px; text-decoration: none; text-wrap: nowrap; width: fit-content; color: inherit; user-select: text;&quot; class=&quot;chat-inline-anchor-widget show-file-icons&quot; data-keybinding-context=&quot;8006&quot; draggable=&quot;true&quot; title=&quot;&quot; href=&quot;vscode-file://vscode-app/c:/Users/cason/AppData/Local/Programs/Microsoft%20VS%20Code/resources/app/out/vs/code/electron-sandbox/workbench/workbench.html&quot; data-href=&quot;vscode-remote://wsl%2Bubuntu-24.04/home/casonpollak/nighthawk/platformer4x-fork/assets/js/platformer/Platform.js#4%2C14&quot;&gt;&lt;span style=&quot;display: inline-block; font-style: normal; font-variant: normal; font-size-adjust: none; font-kerning: auto; font-optical-sizing: auto; font-feature-settings: normal; font-variation-settings: normal; font-weight: normal; font-stretch: normal; font-size: inherit; line-height: 1em; font-family: codicon; text-align: center; text-decoration: none; text-rendering: auto; text-transform: none; -webkit-font-smoothing: antialiased; user-select: none; overflow: hidden; vertical-align: middle; top: 2px; color: var(--vscode-symbolIcon-variableForeground); position: relative;&quot; class=&quot;icon codicon codicon-symbol-variable predefined-file-icon&quot;&gt;&lt;/span&gt;&lt;span style=&quot;padding-right: 3px; text-wrap: wrap;&quot; class=&quot;icon-label&quot;&gt;Platform&lt;/span&gt;&lt;/a&gt;&lt;span&gt;&amp;nbsp;&lt;/span&gt;class.&lt;/li&gt;&lt;/ul&gt;&lt;/li&gt;&lt;li&gt;&lt;p style=&quot;margin: 0px;&quot;&gt;&lt;strong&gt;update()&lt;/strong&gt;&lt;/p&gt;&lt;ul style=&quot;padding-inline-start: 24px;&quot;&gt;&lt;li&gt;Updates the position of the platform for scrolling.&lt;/li&gt;&lt;/ul&gt;&lt;/li&gt;&lt;li&gt;&lt;p style=&quot;margin: 0px;&quot;&gt;&lt;strong&gt;draw()&lt;/strong&gt;&lt;/p&gt;&lt;ul style=&quot;padding-inline-start: 24px;&quot;&gt;&lt;li&gt;Draws the platform image on the canvas, ensuring seamless wrapping.&lt;/li&gt;&lt;/ul&gt;&lt;/li&gt;&lt;li&gt;&lt;p style=&quot;margin: 0px;&quot;&gt;&lt;strong&gt;size()&lt;/strong&gt;&lt;/p&gt;&lt;ul style=&quot;padding-inline-start: 24px;&quot;&gt;&lt;li&gt;Sets the size of the platform canvas to match the screen size and updates the game environment.&lt;/li&gt;&lt;/ul&gt;&lt;/li&gt;&lt;/ol&gt;&#xa;&#xa;" id="T7eqkqiYRjG703eAOTN1-24">
          <mxCell style="text;whiteSpace=wrap;html=1;" vertex="1" parent="T7eqkqiYRjG703eAOTN1-23">
            <mxGeometry y="26" width="192.55" height="256" as="geometry" />
          </mxCell>
        </UserObject>
        <mxCell id="T7eqkqiYRjG703eAOTN1-25" style="edgeStyle=orthogonalEdgeStyle;rounded=0;orthogonalLoop=1;jettySize=auto;html=1;" edge="1" parent="WIyWlLk6GJQsqaUBKTNV-1">
          <mxGeometry relative="1" as="geometry">
            <mxPoint x="-980" y="50" as="targetPoint" />
            <mxPoint x="-870" y="50" as="sourcePoint" />
          </mxGeometry>
        </mxCell>
        <mxCell id="T7eqkqiYRjG703eAOTN1-26" value="PlayerBase.js" style="swimlane;fontStyle=0;align=center;verticalAlign=top;childLayout=stackLayout;horizontal=1;startSize=26;horizontalStack=0;resizeParent=1;resizeLast=0;collapsible=1;marginBottom=0;rounded=0;shadow=0;strokeWidth=1;" vertex="1" parent="WIyWlLk6GJQsqaUBKTNV-1">
          <mxGeometry x="-1240" y="-10" width="262.55" height="800" as="geometry">
            <mxRectangle x="550" y="140" width="160" height="26" as="alternateBounds" />
          </mxGeometry>
        </mxCell>
        <UserObject label="&lt;br&gt;&lt;ol style=&quot;padding-inline-start: 28px; color: rgb(204, 204, 204); font-family: &amp;quot;Segoe WPC&amp;quot;, &amp;quot;Segoe UI&amp;quot;, sans-serif; font-size: 13px; font-style: normal; font-variant-ligatures: normal; font-variant-caps: normal; font-weight: 400; letter-spacing: normal; orphans: 2; text-align: start; text-indent: 0px; text-transform: none; widows: 2; word-spacing: 0px; -webkit-text-stroke-width: 0px; white-space: normal; background-color: rgb(24, 24, 24); text-decoration-thickness: initial; text-decoration-style: initial; text-decoration-color: initial;&quot;&gt;&lt;li&gt;&lt;p style=&quot;margin: 0px;&quot;&gt;&lt;strong&gt;constructor(canvas, image, data)&lt;/strong&gt;&lt;/p&gt;&lt;ul style=&quot;padding-inline-start: 24px;&quot;&gt;&lt;li&gt;Initializes a new instance of the&lt;span&gt;&amp;nbsp;&lt;/span&gt;&lt;a style=&quot;border: 1px solid var(--vscode-chat-requestBorder,var(--vscode-input-background,transparent)); border-radius: 4px; font-weight: 400; margin: 0px 1px; padding: 1px 3px; text-decoration: none; text-wrap: nowrap; width: fit-content; color: inherit; user-select: text;&quot; class=&quot;chat-inline-anchor-widget show-file-icons&quot; data-keybinding-context=&quot;10172&quot; draggable=&quot;true&quot; title=&quot;&quot; href=&quot;vscode-file://vscode-app/c:/Users/cason/AppData/Local/Programs/Microsoft%20VS%20Code/resources/app/out/vs/code/electron-sandbox/workbench/workbench.html&quot; data-href=&quot;vscode-remote://wsl%2Bubuntu-24.04/home/casonpollak/nighthawk/platformer4x-fork/assets/js/platformer/PlayerBase.js#14%2C14&quot;&gt;&lt;span style=&quot;display: inline-block; font-style: normal; font-variant: normal; font-size-adjust: none; font-kerning: auto; font-optical-sizing: auto; font-feature-settings: normal; font-variation-settings: normal; font-weight: normal; font-stretch: normal; font-size: inherit; line-height: 1em; font-family: codicon; text-align: center; text-decoration: none; text-rendering: auto; text-transform: none; -webkit-font-smoothing: antialiased; user-select: none; overflow: hidden; vertical-align: middle; top: 2px; color: var(--vscode-symbolIcon-variableForeground); position: relative;&quot; class=&quot;icon codicon codicon-symbol-variable predefined-file-icon&quot;&gt;&lt;/span&gt;&lt;span style=&quot;padding-right: 3px; text-wrap: wrap;&quot; class=&quot;icon-label&quot;&gt;PlayerBase&lt;/span&gt;&lt;/a&gt;&lt;span&gt;&amp;nbsp;&lt;/span&gt;class.&lt;/li&gt;&lt;/ul&gt;&lt;/li&gt;&lt;li&gt;&lt;p style=&quot;margin: 0px;&quot;&gt;&lt;strong&gt;destroy()&lt;/strong&gt;&lt;/p&gt;&lt;ul style=&quot;padding-inline-start: 24px;&quot;&gt;&lt;li&gt;Removes event listeners and calls the&lt;span&gt;&amp;nbsp;&lt;/span&gt;&lt;a style=&quot;border: 1px solid var(--vscode-chat-requestBorder,var(--vscode-input-background,transparent)); border-radius: 4px; font-weight: 400; margin: 0px 1px; padding: 1px 3px; text-decoration: none; text-wrap: nowrap; width: fit-content; color: inherit; user-select: text;&quot; class=&quot;chat-inline-anchor-widget show-file-icons&quot; data-keybinding-context=&quot;10173&quot; draggable=&quot;true&quot; title=&quot;&quot; href=&quot;vscode-file://vscode-app/c:/Users/cason/AppData/Local/Programs/Microsoft%20VS%20Code/resources/app/out/vs/code/electron-sandbox/workbench/workbench.html&quot; data-href=&quot;vscode-remote://wsl%2Bubuntu-24.04/home/casonpollak/nighthawk/platformer4x-fork/assets/js/platformer/PlayerBase.js#41%2C5&quot;&gt;&lt;span style=&quot;display: inline-block; font-style: normal; font-variant: normal; font-size-adjust: none; font-kerning: auto; font-optical-sizing: auto; font-feature-settings: normal; font-variation-settings: normal; font-weight: normal; font-stretch: normal; font-size: inherit; line-height: 1em; font-family: codicon; text-align: center; text-decoration: none; text-rendering: auto; text-transform: none; -webkit-font-smoothing: antialiased; user-select: none; overflow: hidden; vertical-align: middle; top: 2px; color: var(--vscode-symbolIcon-variableForeground); position: relative;&quot; class=&quot;icon codicon codicon-symbol-variable predefined-file-icon&quot;&gt;&lt;/span&gt;&lt;span style=&quot;padding-right: 3px; text-wrap: wrap;&quot; class=&quot;icon-label&quot;&gt;destroy&lt;/span&gt;&lt;/a&gt;&lt;span&gt;&amp;nbsp;&lt;/span&gt;method of the superclass.&lt;/li&gt;&lt;/ul&gt;&lt;/li&gt;&lt;li&gt;&lt;p style=&quot;margin: 0px;&quot;&gt;&lt;strong&gt;update()&lt;/strong&gt;&lt;/p&gt;&lt;ul style=&quot;padding-inline-start: 24px;&quot;&gt;&lt;li&gt;Updates the player&#39;s animation and movement, and calls the&lt;span&gt;&amp;nbsp;&lt;/span&gt;&lt;a style=&quot;border: 1px solid var(--vscode-chat-requestBorder,var(--vscode-input-background,transparent)); border-radius: 4px; font-weight: 400; margin: 0px 1px; padding: 1px 3px; text-decoration: none; text-wrap: nowrap; width: fit-content; color: inherit; user-select: text;&quot; class=&quot;chat-inline-anchor-widget show-file-icons&quot; data-keybinding-context=&quot;10174&quot; draggable=&quot;true&quot; title=&quot;&quot; href=&quot;vscode-file://vscode-app/c:/Users/cason/AppData/Local/Programs/Microsoft%20VS%20Code/resources/app/out/vs/code/electron-sandbox/workbench/workbench.html&quot; data-href=&quot;vscode-remote://wsl%2Bubuntu-24.04/home/casonpollak/nighthawk/platformer4x-fork/assets/js/platformer/PlayerBase.js#46%2C5&quot;&gt;&lt;span style=&quot;display: inline-block; font-style: normal; font-variant: normal; font-size-adjust: none; font-kerning: auto; font-optical-sizing: auto; font-feature-settings: normal; font-variation-settings: normal; font-weight: normal; font-stretch: normal; font-size: inherit; line-height: 1em; font-family: codicon; text-align: center; text-decoration: none; text-rendering: auto; text-transform: none; -webkit-font-smoothing: antialiased; user-select: none; overflow: hidden; vertical-align: middle; top: 2px; color: var(--vscode-symbolIcon-variableForeground); position: relative;&quot; class=&quot;icon codicon codicon-symbol-variable predefined-file-icon&quot;&gt;&lt;/span&gt;&lt;span style=&quot;padding-right: 3px; text-wrap: wrap;&quot; class=&quot;icon-label&quot;&gt;update&lt;/span&gt;&lt;/a&gt;&lt;span&gt;&amp;nbsp;&lt;/span&gt;method of the superclass.&lt;/li&gt;&lt;/ul&gt;&lt;/li&gt;&lt;li&gt;&lt;p style=&quot;margin: 0px;&quot;&gt;&lt;strong&gt;updateJump()&lt;/strong&gt;&lt;/p&gt;&lt;ul style=&quot;padding-inline-start: 24px;&quot;&gt;&lt;li&gt;Updates the player&#39;s Y position for jumping.&lt;/li&gt;&lt;/ul&gt;&lt;/li&gt;&lt;li&gt;&lt;p style=&quot;margin: 0px;&quot;&gt;&lt;strong&gt;updateMovement()&lt;/strong&gt;&lt;/p&gt;&lt;ul style=&quot;padding-inline-start: 24px;&quot;&gt;&lt;li&gt;Updates the player&#39;s movement based on the current animation state and pressed keys.&lt;/li&gt;&lt;/ul&gt;&lt;/li&gt;&lt;li&gt;&lt;p style=&quot;margin: 0px;&quot;&gt;&lt;strong&gt;updateAnimation()&lt;/strong&gt;&lt;/p&gt;&lt;ul style=&quot;padding-inline-start: 24px;&quot;&gt;&lt;li&gt;Updates the player&#39;s animation based on the current state.&lt;/li&gt;&lt;/ul&gt;&lt;/li&gt;&lt;li&gt;&lt;p style=&quot;margin: 0px;&quot;&gt;&lt;strong&gt;updateAnimationState(key)&lt;/strong&gt;&lt;/p&gt;&lt;ul style=&quot;padding-inline-start: 24px;&quot;&gt;&lt;li&gt;Updates the player&#39;s animation state based on the pressed key.&lt;/li&gt;&lt;/ul&gt;&lt;/li&gt;&lt;li&gt;&lt;p style=&quot;margin: 0px;&quot;&gt;&lt;strong&gt;handleKeyDown(event)&lt;/strong&gt;&lt;/p&gt;&lt;ul style=&quot;padding-inline-start: 24px;&quot;&gt;&lt;li&gt;Handles the keydown event and updates the player&#39;s state and animation.&lt;/li&gt;&lt;/ul&gt;&lt;/li&gt;&lt;li&gt;&lt;p style=&quot;margin: 0px;&quot;&gt;&lt;strong&gt;handleKeyUp(event)&lt;/strong&gt;&lt;/p&gt;&lt;ul style=&quot;padding-inline-start: 24px;&quot;&gt;&lt;li&gt;Handles the keyup event and updates the player&#39;s state and animation.&lt;/li&gt;&lt;/ul&gt;&lt;/li&gt;&lt;li&gt;&lt;p style=&quot;margin: 0px;&quot;&gt;&lt;strong&gt;collisionAction()&lt;/strong&gt;&lt;/p&gt;&lt;ul style=&quot;padding-inline-start: 24px;&quot;&gt;&lt;li&gt;Handles the player&#39;s collision actions.&lt;/li&gt;&lt;/ul&gt;&lt;/li&gt;&lt;li&gt;&lt;p style=&quot;margin: 0px;&quot;&gt;&lt;strong&gt;handleCollisionStart()&lt;/strong&gt;&lt;/p&gt;&lt;ul style=&quot;padding-inline-start: 24px;&quot;&gt;&lt;li&gt;Handles the start of a collision event.&lt;/li&gt;&lt;/ul&gt;&lt;/li&gt;&lt;li&gt;&lt;p style=&quot;margin: 0px;&quot;&gt;&lt;strong&gt;handleCollisionEvent(collisionType)&lt;/strong&gt;&lt;/p&gt;&lt;/li&gt;&lt;ul style=&quot;padding-inline-start: 24px;&quot;&gt;&lt;li&gt;Handles a specific collision event.&lt;/li&gt;&lt;/ul&gt;&lt;li&gt;&lt;p style=&quot;margin: 0px;&quot;&gt;&lt;strong&gt;handleCollisionEnd()&lt;/strong&gt;&lt;/p&gt;&lt;ul style=&quot;padding-inline-start: 24px;&quot;&gt;&lt;li&gt;Handles the end of a collision event.&lt;/li&gt;&lt;/ul&gt;&lt;/li&gt;&lt;li&gt;&lt;p style=&quot;margin: 0px;&quot;&gt;&lt;strong&gt;setActiveCollision()&lt;/strong&gt;&lt;/p&gt;&lt;ul style=&quot;padding-inline-start: 24px;&quot;&gt;&lt;li&gt;Sets the active collision state.&lt;/li&gt;&lt;/ul&gt;&lt;/li&gt;&lt;li&gt;&lt;p style=&quot;margin: 0px;&quot;&gt;&lt;strong&gt;handlePlayerReaction()&lt;/strong&gt;&lt;/p&gt;&lt;ul style=&quot;padding-inline-start: 24px;&quot;&gt;&lt;li&gt;Handles the player&#39;s reaction to collisions.&lt;/li&gt;&lt;/ul&gt;&lt;/li&gt;&lt;/ol&gt;&lt;div&gt;&lt;br/&gt;&lt;/div&gt;" link="&#xa;&lt;ol style=&quot;padding-inline-start: 28px; color: rgb(204, 204, 204); font-family: &amp;quot;Segoe WPC&amp;quot;, &amp;quot;Segoe UI&amp;quot;, sans-serif; font-size: 13px; font-style: normal; font-variant-ligatures: normal; font-variant-caps: normal; font-weight: 400; letter-spacing: normal; orphans: 2; text-align: start; text-indent: 0px; text-transform: none; widows: 2; word-spacing: 0px; -webkit-text-stroke-width: 0px; white-space: normal; background-color: rgb(24, 24, 24); text-decoration-thickness: initial; text-decoration-style: initial; text-decoration-color: initial;&quot;&gt;&lt;li&gt;&lt;p style=&quot;margin: 0px;&quot;&gt;&lt;strong&gt;constructor(canvas, image, data)&lt;/strong&gt;&lt;/p&gt;&lt;ul style=&quot;padding-inline-start: 24px;&quot;&gt;&lt;li&gt;Initializes a new instance of the&lt;span&gt;&amp;nbsp;&lt;/span&gt;&lt;a style=&quot;border: 1px solid var(--vscode-chat-requestBorder,var(--vscode-input-background,transparent)); border-radius: 4px; font-weight: 400; margin: 0px 1px; padding: 1px 3px; text-decoration: none; text-wrap: nowrap; width: fit-content; color: inherit; user-select: text;&quot; class=&quot;chat-inline-anchor-widget show-file-icons&quot; data-keybinding-context=&quot;10172&quot; draggable=&quot;true&quot; title=&quot;&quot; href=&quot;vscode-file://vscode-app/c:/Users/cason/AppData/Local/Programs/Microsoft%20VS%20Code/resources/app/out/vs/code/electron-sandbox/workbench/workbench.html&quot; data-href=&quot;vscode-remote://wsl%2Bubuntu-24.04/home/casonpollak/nighthawk/platformer4x-fork/assets/js/platformer/PlayerBase.js#14%2C14&quot;&gt;&lt;span style=&quot;display: inline-block; font-style: normal; font-variant: normal; font-size-adjust: none; font-kerning: auto; font-optical-sizing: auto; font-feature-settings: normal; font-variation-settings: normal; font-weight: normal; font-stretch: normal; font-size: inherit; line-height: 1em; font-family: codicon; text-align: center; text-decoration: none; text-rendering: auto; text-transform: none; -webkit-font-smoothing: antialiased; user-select: none; overflow: hidden; vertical-align: middle; top: 2px; color: var(--vscode-symbolIcon-variableForeground); position: relative;&quot; class=&quot;icon codicon codicon-symbol-variable predefined-file-icon&quot;&gt;&lt;/span&gt;&lt;span style=&quot;padding-right: 3px; text-wrap: wrap;&quot; class=&quot;icon-label&quot;&gt;PlayerBase&lt;/span&gt;&lt;/a&gt;&lt;span&gt;&amp;nbsp;&lt;/span&gt;class.&lt;/li&gt;&lt;/ul&gt;&lt;/li&gt;&lt;li&gt;&lt;p style=&quot;margin: 0px;&quot;&gt;&lt;strong&gt;destroy()&lt;/strong&gt;&lt;/p&gt;&lt;ul style=&quot;padding-inline-start: 24px;&quot;&gt;&lt;li&gt;Removes event listeners and calls the&lt;span&gt;&amp;nbsp;&lt;/span&gt;&lt;a style=&quot;border: 1px solid var(--vscode-chat-requestBorder,var(--vscode-input-background,transparent)); border-radius: 4px; font-weight: 400; margin: 0px 1px; padding: 1px 3px; text-decoration: none; text-wrap: nowrap; width: fit-content; color: inherit; user-select: text;&quot; class=&quot;chat-inline-anchor-widget show-file-icons&quot; data-keybinding-context=&quot;10173&quot; draggable=&quot;true&quot; title=&quot;&quot; href=&quot;vscode-file://vscode-app/c:/Users/cason/AppData/Local/Programs/Microsoft%20VS%20Code/resources/app/out/vs/code/electron-sandbox/workbench/workbench.html&quot; data-href=&quot;vscode-remote://wsl%2Bubuntu-24.04/home/casonpollak/nighthawk/platformer4x-fork/assets/js/platformer/PlayerBase.js#41%2C5&quot;&gt;&lt;span style=&quot;display: inline-block; font-style: normal; font-variant: normal; font-size-adjust: none; font-kerning: auto; font-optical-sizing: auto; font-feature-settings: normal; font-variation-settings: normal; font-weight: normal; font-stretch: normal; font-size: inherit; line-height: 1em; font-family: codicon; text-align: center; text-decoration: none; text-rendering: auto; text-transform: none; -webkit-font-smoothing: antialiased; user-select: none; overflow: hidden; vertical-align: middle; top: 2px; color: var(--vscode-symbolIcon-variableForeground); position: relative;&quot; class=&quot;icon codicon codicon-symbol-variable predefined-file-icon&quot;&gt;&lt;/span&gt;&lt;span style=&quot;padding-right: 3px; text-wrap: wrap;&quot; class=&quot;icon-label&quot;&gt;destroy&lt;/span&gt;&lt;/a&gt;&lt;span&gt;&amp;nbsp;&lt;/span&gt;method of the superclass.&lt;/li&gt;&lt;/ul&gt;&lt;/li&gt;&lt;li&gt;&lt;p style=&quot;margin: 0px;&quot;&gt;&lt;strong&gt;update()&lt;/strong&gt;&lt;/p&gt;&lt;ul style=&quot;padding-inline-start: 24px;&quot;&gt;&lt;li&gt;Updates the player&#39;s animation and movement, and calls the&lt;span&gt;&amp;nbsp;&lt;/span&gt;&lt;a style=&quot;border: 1px solid var(--vscode-chat-requestBorder,var(--vscode-input-background,transparent)); border-radius: 4px; font-weight: 400; margin: 0px 1px; padding: 1px 3px; text-decoration: none; text-wrap: nowrap; width: fit-content; color: inherit; user-select: text;&quot; class=&quot;chat-inline-anchor-widget show-file-icons&quot; data-keybinding-context=&quot;10174&quot; draggable=&quot;true&quot; title=&quot;&quot; href=&quot;vscode-file://vscode-app/c:/Users/cason/AppData/Local/Programs/Microsoft%20VS%20Code/resources/app/out/vs/code/electron-sandbox/workbench/workbench.html&quot; data-href=&quot;vscode-remote://wsl%2Bubuntu-24.04/home/casonpollak/nighthawk/platformer4x-fork/assets/js/platformer/PlayerBase.js#46%2C5&quot;&gt;&lt;span style=&quot;display: inline-block; font-style: normal; font-variant: normal; font-size-adjust: none; font-kerning: auto; font-optical-sizing: auto; font-feature-settings: normal; font-variation-settings: normal; font-weight: normal; font-stretch: normal; font-size: inherit; line-height: 1em; font-family: codicon; text-align: center; text-decoration: none; text-rendering: auto; text-transform: none; -webkit-font-smoothing: antialiased; user-select: none; overflow: hidden; vertical-align: middle; top: 2px; color: var(--vscode-symbolIcon-variableForeground); position: relative;&quot; class=&quot;icon codicon codicon-symbol-variable predefined-file-icon&quot;&gt;&lt;/span&gt;&lt;span style=&quot;padding-right: 3px; text-wrap: wrap;&quot; class=&quot;icon-label&quot;&gt;update&lt;/span&gt;&lt;/a&gt;&lt;span&gt;&amp;nbsp;&lt;/span&gt;method of the superclass.&lt;/li&gt;&lt;/ul&gt;&lt;/li&gt;&lt;li&gt;&lt;p style=&quot;margin: 0px;&quot;&gt;&lt;strong&gt;updateJump()&lt;/strong&gt;&lt;/p&gt;&lt;ul style=&quot;padding-inline-start: 24px;&quot;&gt;&lt;li&gt;Updates the player&#39;s Y position for jumping.&lt;/li&gt;&lt;/ul&gt;&lt;/li&gt;&lt;li&gt;&lt;p style=&quot;margin: 0px;&quot;&gt;&lt;strong&gt;updateMovement()&lt;/strong&gt;&lt;/p&gt;&lt;ul style=&quot;padding-inline-start: 24px;&quot;&gt;&lt;li&gt;Updates the player&#39;s movement based on the current animation state and pressed keys.&lt;/li&gt;&lt;/ul&gt;&lt;/li&gt;&lt;li&gt;&lt;p style=&quot;margin: 0px;&quot;&gt;&lt;strong&gt;updateAnimation()&lt;/strong&gt;&lt;/p&gt;&lt;ul style=&quot;padding-inline-start: 24px;&quot;&gt;&lt;li&gt;Updates the player&#39;s animation based on the current state.&lt;/li&gt;&lt;/ul&gt;&lt;/li&gt;&lt;li&gt;&lt;p style=&quot;margin: 0px;&quot;&gt;&lt;strong&gt;updateAnimationState(key)&lt;/strong&gt;&lt;/p&gt;&lt;ul style=&quot;padding-inline-start: 24px;&quot;&gt;&lt;li&gt;Updates the player&#39;s animation state based on the pressed key.&lt;/li&gt;&lt;/ul&gt;&lt;/li&gt;&lt;li&gt;&lt;p style=&quot;margin: 0px;&quot;&gt;&lt;strong&gt;handleKeyDown(event)&lt;/strong&gt;&lt;/p&gt;&lt;ul style=&quot;padding-inline-start: 24px;&quot;&gt;&lt;li&gt;Handles the keydown event and updates the player&#39;s state and animation.&lt;/li&gt;&lt;/ul&gt;&lt;/li&gt;&lt;li&gt;&lt;p style=&quot;margin: 0px;&quot;&gt;&lt;strong&gt;handleKeyUp(event)&lt;/strong&gt;&lt;/p&gt;&lt;ul style=&quot;padding-inline-start: 24px;&quot;&gt;&lt;li&gt;Handles the keyup event and updates the player&#39;s state and animation.&lt;/li&gt;&lt;/ul&gt;&lt;/li&gt;&lt;li&gt;&lt;p style=&quot;margin: 0px;&quot;&gt;&lt;strong&gt;collisionAction()&lt;/strong&gt;&lt;/p&gt;&lt;ul style=&quot;padding-inline-start: 24px;&quot;&gt;&lt;li&gt;Handles the player&#39;s collision actions.&lt;/li&gt;&lt;/ul&gt;&lt;/li&gt;&lt;li&gt;&lt;p style=&quot;margin: 0px;&quot;&gt;&lt;strong&gt;handleCollisionStart()&lt;/strong&gt;&lt;/p&gt;&lt;ul style=&quot;padding-inline-start: 24px;&quot;&gt;&lt;li&gt;Handles the start of a collision event.&lt;/li&gt;&lt;/ul&gt;&lt;/li&gt;&lt;li&gt;&lt;p style=&quot;margin: 0px;&quot;&gt;&lt;strong&gt;handleCollisionEvent(collisionType)&lt;/strong&gt;&lt;/p&gt;&lt;ul style=&quot;padding-inline-start: 24px;&quot;&gt;&lt;li&gt;Handles a specific collision event.&lt;/li&gt;&lt;/ul&gt;&lt;/li&gt;&lt;/ol&gt;&#xa;&#xa;" id="T7eqkqiYRjG703eAOTN1-27">
          <mxCell style="text;whiteSpace=wrap;html=1;" vertex="1" parent="WIyWlLk6GJQsqaUBKTNV-1">
            <mxGeometry x="-1230" y="-10" width="192.55" height="256" as="geometry" />
          </mxCell>
        </UserObject>
        <mxCell id="T7eqkqiYRjG703eAOTN1-30" value="GameEnv.js" style="swimlane;fontStyle=2;align=center;verticalAlign=top;childLayout=stackLayout;horizontal=1;startSize=26;horizontalStack=0;resizeParent=1;resizeLast=0;collapsible=1;marginBottom=0;rounded=0;shadow=0;strokeWidth=1;" vertex="1" parent="WIyWlLk6GJQsqaUBKTNV-1">
          <mxGeometry x="-595" y="370" width="230" height="710" as="geometry">
            <mxRectangle x="230" y="140" width="160" height="26" as="alternateBounds" />
          </mxGeometry>
        </mxCell>
        <mxCell id="T7eqkqiYRjG703eAOTN1-32" value="&lt;ol style=&quot;padding-inline-start: 28px; color: rgb(204, 204, 204); font-family: &amp;quot;Segoe WPC&amp;quot;, &amp;quot;Segoe UI&amp;quot;, sans-serif; font-size: 13px; font-style: normal; font-variant-ligatures: normal; font-variant-caps: normal; font-weight: 400; letter-spacing: normal; orphans: 2; text-align: start; text-indent: 0px; text-transform: none; widows: 2; word-spacing: 0px; -webkit-text-stroke-width: 0px; white-space: normal; background-color: rgb(24, 24, 24); text-decoration-thickness: initial; text-decoration-style: initial; text-decoration-color: initial;&quot;&gt;&lt;li&gt;&lt;p style=&quot;margin: 0px;&quot;&gt;&lt;strong&gt;setTop()&lt;/strong&gt;&lt;/p&gt;&lt;ul style=&quot;padding-inline-start: 24px;&quot;&gt;&lt;li&gt;Sets the top position of the game environment based on the header height.&lt;/li&gt;&lt;/ul&gt;&lt;/li&gt;&lt;li&gt;&lt;p style=&quot;margin: 0px;&quot;&gt;&lt;strong&gt;setBottom()&lt;/strong&gt;&lt;/p&gt;&lt;ul style=&quot;padding-inline-start: 24px;&quot;&gt;&lt;li&gt;Sets the bottom position of the game environment based on the background height.&lt;/li&gt;&lt;/ul&gt;&lt;/li&gt;&lt;li&gt;&lt;p style=&quot;margin: 0px;&quot;&gt;&lt;strong&gt;initialize()&lt;/strong&gt;&lt;/p&gt;&lt;ul style=&quot;padding-inline-start: 24px;&quot;&gt;&lt;li&gt;Initializes the game environment dimensions.&lt;/li&gt;&lt;/ul&gt;&lt;/li&gt;&lt;li&gt;&lt;p style=&quot;margin: 0px;&quot;&gt;&lt;strong&gt;resize()&lt;/strong&gt;&lt;/p&gt;&lt;ul style=&quot;padding-inline-start: 24px;&quot;&gt;&lt;li&gt;Resizes the game objects based on the updated game environment dimensions.&lt;/li&gt;&lt;/ul&gt;&lt;/li&gt;&lt;li&gt;&lt;p style=&quot;margin: 0px;&quot;&gt;&lt;strong&gt;update()&lt;/strong&gt;&lt;/p&gt;&lt;ul style=&quot;padding-inline-start: 24px;&quot;&gt;&lt;li&gt;Updates, serializes, and draws the game objects.&lt;/li&gt;&lt;/ul&gt;&lt;/li&gt;&lt;li&gt;&lt;p style=&quot;margin: 0px;&quot;&gt;&lt;strong&gt;destroy()&lt;/strong&gt;&lt;/p&gt;&lt;ul style=&quot;padding-inline-start: 24px;&quot;&gt;&lt;li&gt;Destroys all game objects.&lt;/li&gt;&lt;/ul&gt;&lt;/li&gt;&lt;li&gt;&lt;p style=&quot;margin: 0px;&quot;&gt;&lt;strong&gt;setInvert()&lt;/strong&gt;&lt;/p&gt;&lt;ul style=&quot;padding-inline-start: 24px;&quot;&gt;&lt;li&gt;Toggles the canvas filter property between inverted and normal.&lt;/li&gt;&lt;/ul&gt;&lt;/li&gt;&lt;li&gt;&lt;p style=&quot;margin: 0px;&quot;&gt;&lt;strong&gt;PlayerPosition()&lt;/strong&gt;&lt;/p&gt;&lt;ul style=&quot;padding-inline-start: 24px;&quot;&gt;&lt;li&gt;Initializes player position properties.&lt;/li&gt;&lt;/ul&gt;&lt;/li&gt;&lt;li&gt;&lt;p style=&quot;margin: 0px;&quot;&gt;&lt;strong&gt;playSound(id)&lt;/strong&gt;&lt;/p&gt;&lt;ul style=&quot;padding-inline-start: 24px;&quot;&gt;&lt;li&gt;Plays a sound by its ID.&lt;/li&gt;&lt;/ul&gt;&lt;/li&gt;&lt;li&gt;&lt;p style=&quot;margin: 0px;&quot;&gt;&lt;strong&gt;loopSound(id)&lt;/strong&gt;&lt;/p&gt;&lt;ul style=&quot;padding-inline-start: 24px;&quot;&gt;&lt;li&gt;Plays a sound by its ID in a loop.&lt;/li&gt;&lt;/ul&gt;&lt;/li&gt;&lt;li&gt;&lt;p style=&quot;margin: 0px;&quot;&gt;&lt;strong&gt;stopAllSounds()&lt;/strong&gt;&lt;/p&gt;&lt;ul style=&quot;padding-inline-start: 24px;&quot;&gt;&lt;li&gt;Stops all sounds.&lt;/li&gt;&lt;/ul&gt;&lt;/li&gt;&lt;li&gt;&lt;p style=&quot;margin: 0px;&quot;&gt;&lt;strong&gt;updateParallaxDirection(key)&lt;/strong&gt;&lt;/p&gt;&lt;/li&gt;&lt;ul style=&quot;padding-inline-start: 24px;&quot;&gt;&lt;li&gt;Updates the parallax direction based on the pressed key.&lt;/li&gt;&lt;/ul&gt;&lt;li&gt;&lt;p style=&quot;margin: 0px;&quot;&gt;&lt;strong&gt;customTimeout(callback, delay)&lt;/strong&gt;&lt;/p&gt;&lt;ul style=&quot;padding-inline-start: 24px;&quot;&gt;&lt;li&gt;Custom timeout function that uses&amp;nbsp;requestAnimationFrame for timing.&lt;/li&gt;&lt;/ul&gt;&lt;/li&gt;&lt;/ol&gt;" style="text;whiteSpace=wrap;html=1;" vertex="1" parent="T7eqkqiYRjG703eAOTN1-30">
          <mxGeometry y="26" width="230" height="440" as="geometry" />
        </mxCell>
      </root>
    </mxGraphModel>
  </diagram>
</mxfile>
